<?xml version="1.0" encoding="UTF-8" standalone="no"?>
<svg
   width="120"
   height="120"
   viewBox="-1 -1 18 18"
   shape-rendering="geometricPrecision"
   id="qr code"
   version="1.1"
   sodipodi:docname="favicon.svg"
   inkscape:version="1.1.2 (b8e25be833, 2022-02-05)"
   xmlns:inkscape="http://www.inkscape.org/namespaces/inkscape"
   xmlns:sodipodi="http://sodipodi.sourceforge.net/DTD/sodipodi-0.dtd"
   xmlns="http://www.w3.org/2000/svg"
   xmlns:svg="http://www.w3.org/2000/svg">
  <defs
     id="defs838" />
  <sodipodi:namedview
     id="namedview836"
     pagecolor="#505050"
     bordercolor="#eeeeee"
     borderopacity="1"
     inkscape:pageshadow="0"
     inkscape:pageopacity="0"
     inkscape:pagecheckerboard="0"
     showgrid="false"
     inkscape:zoom="4"
     inkscape:cx="59"
     inkscape:cy="85.25"
     inkscape:window-width="1920"
     inkscape:window-height="1017"
     inkscape:window-x="-8"
     inkscape:window-y="-8"
     inkscape:window-maximized="1"
     inkscape:current-layer="qr code"
     showguides="true"
     inkscape:guide-bbox="true"
     units="px"
     height="120px">
    <sodipodi:guide
       position="-3.8183766,11.196163"
       orientation="1,0"
       id="guide1974" />
    <sodipodi:guide
       position="32.297102,10.453701"
       orientation="1,0"
       id="guide1976" />
  </sodipodi:namedview>
  <rect
     id="qr background"
     fill-opacity="1"
     fill="#ffffff"
     x="0.42500019"
     y="-0.6245513"
     width="15.15"
     height="15.15"
     ry="0.75750005"
     style="stroke-width:0.56111" />
  <path
     id="path1897"
     style="fill:#000000;stroke:#ffffff;stroke-width:1.14617;stroke-miterlimit:4;stroke-dasharray:none;stroke-opacity:1;paint-order:stroke fill markers"
     d="m 7.6976306,4.605764 c -0.563317,0.01464 -1.072361,0.486786 -1.025285,1.0517 0,0.424176 0.26145,0.769867 0.629498,0.921413 0.0065,0.06736 0.01791,0.173423 0.01791,0.334897 v 0.434289 c -0.145877,6.579255 0,0 -0.145877,6.579255 -0.08388,0.372065 -0.318571,0.422584 -1.041851,0.224308 -0.752215,-0.206215 -1.686476,-0.664471 -1.84372,-0.904401 -0.125005,-0.190816 -0.144526,-0.354136 -0.05417,-0.45399 0.04505,-0.04978 0.11183,-0.07903 0.148639,-0.06491 0.04069,0.01559 0.08353,-0.01843 0.109243,-0.08687 0.09054,-0.241031 -0.211586,-0.59747 -0.806797,-0.951409 -0.144665,-0.08604 -0.381409,-0.270822 -0.526074,-0.410563 -0.151798,-0.146637 -0.285644,-0.239631 -0.316538,-0.219831 -0.09608,0.06155 -0.292404,0.506391 -0.352806,0.798736 -0.121414,0.587656 0.03254,1.454704 0.318777,1.794919 0.151121,0.179626 0.235227,0.181052 0.270426,0.0049 0.06208,-0.310372 0.448678,-0.220708 0.869476,0.201476 0.333042,0.334191 0.967147,0.818841 1.243326,0.950068 0.10522,0.04997 0.25554,0.131075 0.334448,0.180432 0.0789,0.04931 0.315652,0.148363 0.526074,0.220279 0.440836,0.150797 0.957395,0.417919 1.16184,0.600844 0.07767,0.06944 0.194865,0.161616 0.260574,0.204609 0.114912,0.07533 0.122539,0.07351 0.20058,-0.04567 0.162552,-0.248108 0.442919,-0.465433 0.867686,-0.672031 0.238734,-0.116207 0.47018,-0.210877 0.513986,-0.210877 0.0932,0 0.879725,-0.348172 1.3534644,-0.599054 0.371302,-0.196554 0.53838,-0.314864 0.953201,-0.675164 0.468239,-0.40674 0.705199,-0.452752 0.950963,-0.184463 l 0.153124,0.167448 0.09895,-0.107454 c 0.178239,-0.19488 0.243603,-0.390919 0.278036,-0.831422 0.02635,-0.336818 0.01494,-0.519823 -0.04969,-0.812168 -0.102432,-0.461878 -0.274145,-0.85672 -0.402503,-0.92544 -0.08106,-0.04333 -0.108441,-0.03079 -0.177745,0.08104 -0.120475,0.194403 -0.288433,0.347501 -0.612486,0.556966 -0.387992,0.250787 -0.622395,0.508907 -0.694416,0.766054 -0.06949,0.248347 -0.03792,0.338774 0.09402,0.268186 0.14394,-0.07704 0.23783,-0.05595 0.293257,0.06582 0.0781,0.171304 -0.03912,0.309229 -0.492494,0.578906 -0.774309,0.460587 -1.8124244,0.837688 -2.3057704,0.837688 -0.232805,0 -0.45162,-0.09031 -0.486675,-0.20058 0.12438,-6.76374 0,0 0.12438,-6.76374 -0.01387,-0.01387 -0.02841,-0.184323 -0.03224,-0.378773 l -0.0049,-0.33308 c 0.394107,-0.13995 0.679195,-0.497558 0.679195,-0.940665 0,-0.573881 -0.478266,-1.051699 -1.052148,-1.051699 -0.0089,0 -0.01792,-2.33e-4 -0.02686,0 z m -0.02105,0.525627 c 0.28694,0 0.526074,0.239497 0.526074,0.478614 0,0.28694 -0.239134,0.526075 -0.526074,0.526075 -0.286941,0 -0.478167,-0.239135 -0.478167,-0.526075 0,-0.239117 0.191226,-0.478614 0.478167,-0.478614 z"
     sodipodi:nodetypes="cccscccccccccccccccccccccsccccccccscccccsccccssccsssss" />
  <path
     id="path14"
     style="fill:#000000;fill-opacity:1;fill-rule:nonzero;stroke:none;stroke-width:1.94595;stroke-miterlimit:4;stroke-dasharray:none;stroke-opacity:1;paint-order:stroke fill markers"
     d="m 5.4260136,-0.23768421 c -0.04522,9.635e-4 -0.08923,0.023284 -0.11604,0.063785 -0.02891,0.043672 -0.04602,0.082477 -0.05765,0.118984 -0.01278,0.036957 -0.01844,0.070927 -0.02085,0.1035284 -0.0023,0.032655 -1e-5,0.063493 0.0053,0.092979 0.0043,0.029829 0.0093,0.059433 0.01521,0.088686 0.0219,0.1175509 0.06118,0.228158 0.110275,0.3345046 0.04997,0.106012 0.09722,0.2131228 0.156397,0.315369 0.05834,0.1025554 0.126574,0.20090541 0.191478,0.30064941 0.09519,0.1510883 0.191093,0.3019431 0.229995,0.4763041 l -0.03987,0.01656 c -0.01839,0.00738 -0.02366,0.036302 -0.0119,0.064276 0.01152,0.027975 0.03569,0.044506 0.05397,0.036922 l -0.02527,0.010304 c -0.02014,0.00828 -0.02742,0.037936 -0.0157,0.06587 0.01152,0.027974 0.03741,0.043785 0.05778,0.035327 l 0.0052,-0.00196 c 0.0076,0.044102 0.0198,0.086137 0.03422,0.1273252 l 0.01521,0.046244 C 5.2408276,2.4453882 4.6471476,3.0622919 4.2818766,3.789989 l -0.04624,-0.01533 c -0.0411,-0.01476 -0.08338,-0.02654 -0.127448,-0.034101 l 0.0021,-0.00515 c 0.0083,-0.020145 -0.0073,-0.046323 -0.03545,-0.057897 -0.02797,-0.011522 -0.05743,-0.00426 -0.06587,0.015701 l -0.01043,0.025391 c 0.0076,-0.018378 -0.009,-0.04256 -0.03692,-0.054095 -0.02797,-0.011522 -0.05679,-0.00601 -0.0644,0.012144 l -0.01668,0.039866 C 3.7063196,3.6777762 3.5555456,3.5817222 3.4045116,3.4865161 3.3047276,3.4216024 3.2062816,3.3534971 3.1037396,3.2951604 3.0015616,3.2359712 2.8944036,3.1886142 2.7883706,3.1386412 2.6820886,3.0895147 2.5714296,3.0506135 2.4538656,3.0284889 c -0.02929,-0.00576 -0.05872,-0.010654 -0.08856,-0.015333 -0.02956,-0.00523 -0.06033,-0.0076 -0.09298,-0.00527 -0.03258,0.00232 -0.06669,0.00816 -0.103651,0.020853 -0.03649,0.01188 -0.07529,0.028778 -0.118984,0.057652 -0.04691,0.031124 -0.07288,0.088688 -0.06096,0.1473194 0.01026,0.051289 0.02566,0.090917 0.0433,0.1249946 0.0171,0.035089 0.03721,0.063147 0.05863,0.087827 0.02122,0.024805 0.04477,0.044911 0.0693,0.062191 0.02421,0.018166 0.04865,0.035309 0.07348,0.051887 0.09872,0.067488 0.204455,0.1181541 0.314388,0.1586045 0.110296,0.039655 0.219533,0.081869 0.333646,0.1122376 0.113716,0.03125 0.231546,0.05277 0.347997,0.0774 0.174202,0.03946 0.348697,0.07824 0.499488,0.174061 l -0.0168,0.03974 c -0.0076,0.01838 0.0091,0.04254 0.03704,0.0541 0.0271,0.01116 0.05488,0.0064 0.06342,-0.01043 l -0.0097,0.0238 c -0.0083,0.02015 0.0072,0.04609 0.03545,0.05765 0.02797,0.01152 0.05739,0.0044 0.06587,-0.01558 l 0.002,-0.0053 c 0.03642,0.02594 0.07483,0.04721 0.1142,0.06599 l 0.04355,0.02159 c -0.25623,0.772887 -0.272495,1.629041 1.26e-4,2.449477 l -0.04367,0.02159 c -0.0394,0.01883 -0.07778,0.0401 -0.1142,0.06599 l -0.0022,-0.0053 c -0.0083,-0.02014 -0.03791,-0.02742 -0.06587,-0.0157 -0.02797,0.01152 -0.04375,0.0374 -0.03533,0.05777 l 0.01043,0.02539 c -0.0076,-0.01817 -0.03646,-0.02365 -0.0644,-0.0119 -0.02797,0.01152 -0.0445,0.03569 -0.03692,0.05397 l 0.01668,0.03986 c -0.150817,0.09577 -0.325166,0.134586 -0.499364,0.173938 -0.116417,0.02481 -0.234292,0.04617 -0.347998,0.0774 -0.114113,0.03048 -0.223321,0.07284 -0.333646,0.112483 -0.109882,0.04043 -0.215632,0.09103 -0.314388,0.158481 -0.02481,0.01674 -0.04931,0.03405 -0.0736,0.05201 -0.02452,0.01728 -0.04781,0.03735 -0.0693,0.06207 -0.02122,0.02448 -0.04146,0.05281 -0.05863,0.08795 -0.01746,0.03397 -0.03275,0.07351 -0.04318,0.124872 -0.01116,0.05521 0.01112,0.114304 0.06096,0.147319 0.04365,0.02889 0.08234,0.04602 0.118861,0.05765 0.03697,0.01278 0.07103,0.01831 0.103651,0.02073 0.03266,0.0023 0.06337,1.26e-4 0.09286,-0.0048 0.0299,-0.0043 0.05954,-0.0098 0.08881,-0.01533 0.117551,-0.0219 0.228036,-0.06115 0.334382,-0.110275 0.106012,-0.04995 0.213165,-0.09721 0.315369,-0.156397 0.102585,-0.0583 0.201011,-0.126532 0.300772,-0.191478 0.151088,-0.09523 0.301904,-0.191092 0.476304,-0.229995 l 0.01668,0.03987 c 0.0076,0.01816 0.03642,0.02365 0.0644,0.0119 0.02797,-0.01188 0.04451,-0.03569 0.03692,-0.05397 l 0.01043,0.02539 c 0.0083,0.02014 0.03787,0.02729 0.06575,0.01558 0.02797,-0.01152 0.04389,-0.03738 0.03545,-0.05777 l -0.002,-0.0052 c 0.04414,-0.0072 0.08617,-0.01972 0.127325,-0.0341 l 0.04624,-0.01533 c 0.387412,0.772915 1.004272,1.366706 1.732013,1.732015 l -0.01521,0.04625 c -0.01476,0.04113 -0.02681,0.08329 -0.0341,0.127448 l -0.0053,-0.0021 c -0.02015,-0.0083 -0.04626,0.0073 -0.05777,0.03545 -0.01152,0.02797 -0.0042,0.05746 0.0157,0.06587 l 0.02355,0.0099 c -0.01793,-0.0058 -0.04103,0.01056 -0.05226,0.03754 -0.01152,0.02798 -0.0061,0.05673 0.0119,0.06428 l 0.03987,0.01681 c -0.03886,0.1744 -0.134777,0.325194 -0.229995,0.476304 -0.06484,0.09976 -0.13312,0.19829 -0.191479,0.300772 -0.05917,0.102195 -0.106442,0.209294 -0.156396,0.315369 -0.04922,0.106264 -0.08801,0.216771 -0.110152,0.334382 -0.0058,0.02922 -0.01065,0.05891 -0.01533,0.08881 -0.0052,0.02949 -0.0073,0.06014 -0.0049,0.09274 0.0022,0.03262 0.0082,0.06675 0.02085,0.103651 0.01188,0.03648 0.02878,0.07524 0.05765,0.118984 0.03112,0.04689 0.08881,0.0729 0.147319,0.06096 0.05136,-0.01044 0.09076,-0.02568 0.124872,-0.0433 0.03509,-0.01709 0.06327,-0.03707 0.08795,-0.05851 0.02481,-0.02122 0.04482,-0.04479 0.06207,-0.06931 0.01816,-0.0242 0.03543,-0.04879 0.05201,-0.0736 0.06754,-0.09865 0.118137,-0.204558 0.158605,-0.314388 0.03964,-0.110332 0.08192,-0.219434 0.112237,-0.333523 0.03134,-0.113753 0.05272,-0.231691 0.0774,-0.348121 0.0395,-0.174149 0.07817,-0.348613 0.173938,-0.499487 l 0.03999,0.01681 c 0.01817,0.0076 0.04247,-0.009 0.0541,-0.03692 0.01116,-0.0271 0.0063,-0.05495 -0.0103,-0.06354 l 0.0238,0.0097 c 0.02015,0.0083 0.04611,-0.0072 0.05765,-0.03533 0.01152,-0.02797 0.0042,-0.05739 -0.0157,-0.06587 l -0.0052,-0.0022 c 0.02594,-0.0364 0.04707,-0.07473 0.06587,-0.114077 l 0.02171,-0.04367 c 0.772894,0.256261 1.628882,0.272608 2.449354,0 l 0.02171,0.04355 c 0.01883,0.03939 0.04004,0.07782 0.06599,0.1142 l -0.0053,0.0021 c -0.02014,0.0083 -0.02742,0.03791 -0.0157,0.06587 0.01152,0.02797 0.03754,0.04379 0.0579,0.03533 l 0.02368,-0.0097 c -0.01701,0.0086 -0.02165,0.03649 -0.01043,0.06354 0.01152,0.02798 0.03581,0.0445 0.0541,0.03692 l 0.03987,-0.0168 c 0.09586,0.150836 0.134496,0.325372 0.173938,0.499488 0.02481,0.116507 0.04631,0.234362 0.07752,0.34812 0.03042,0.114113 0.07272,0.223223 0.11236,0.333523 0.04034,0.109847 0.09094,0.215703 0.158482,0.314388 0.01674,0.02481 0.03402,0.0493 0.05201,0.0736 0.0171,0.02452 0.03729,0.04781 0.06207,0.0693 0.02452,0.02165 0.05295,0.04141 0.08795,0.05851 0.03408,0.01746 0.07355,0.03302 0.1248714,0.04342 0.05521,0.01116 0.11427,-0.01125 0.14732,-0.06109 l 1.25e-4,6.28e-4 c 0.02891,-0.0437 0.04614,-0.08248 0.05777,-0.118984 0.0126,-0.03692 0.01833,-0.07112 0.02073,-0.103651 0.0023,-0.03269 1.26e-4,-0.06335 -0.0052,-0.09298 -0.0043,-0.02987 -0.0092,-0.05935 -0.01533,-0.08869 -0.02219,-0.117516 -0.06107,-0.228075 -0.110275,-0.334382 -0.04999,-0.106011 -0.09721,-0.213188 -0.156396,-0.315369 C 9.9495746,10.097002 9.8812216,9.998515 9.8162966,9.898663 9.7210266,9.747576 9.6251406,9.596876 9.5861786,9.422482 l 0.03999,-0.01668 c 0.01838,-0.0076 0.02359,-0.03636 0.01202,-0.06428 -0.01188,-0.02797 -0.03572,-0.0446 -0.05397,-0.03705 l 0.02539,-0.01043 c 0.02015,-0.0083 0.02729,-0.03797 0.01558,-0.06587 -0.01152,-0.02797 -0.03729,-0.04375 -0.05765,-0.03533 l -0.0053,0.002 c -0.0072,-0.0441 -0.01971,-0.08619 -0.0341,-0.127325 l -0.01521,-0.04637 C 10.286208,8.633753 10.879878,8.016952 11.24519,7.289255 l 0.04624,0.01533 c 0.04117,0.01476 0.08326,0.0265 0.127325,0.03398 l -0.002,0.0053 c -0.0083,0.02015 0.0072,0.04616 0.03533,0.05777 0.02797,0.01152 0.05761,0.0042 0.06599,-0.0157 l 0.01055,-0.02539 c -0.0076,0.01839 0.0091,0.0424 0.03692,0.0541 0.02797,0.01152 0.05667,0.0061 0.06415,-0.01202 l 0.0168,-0.03999 c 0.174419,0.03894 0.325104,0.134997 0.476182,0.23024 0.09977,0.06484 0.198298,0.133019 0.300772,0.191356 0.102268,0.05919 0.209357,0.106423 0.315491,0.156396 0.106193,0.04913 0.216788,0.08822 0.334382,0.110275 0.02925,0.0058 0.05884,0.01053 0.08869,0.01521 0.02954,0.0056 0.0602,0.0076 0.09286,0.0053 0.0327,-0.0022 0.06682,-0.0082 0.103651,-0.02085 0.03648,-0.01188 0.07531,-0.02883 0.118984,-0.05765 0.04693,-0.0312 0.07287,-0.08874 0.06096,-0.14732 -0.01044,-0.05136 -0.02558,-0.09087 -0.0433,-0.124872 -0.0171,-0.0351 -0.03714,-0.0633 -0.05863,-0.08795 -0.02122,-0.02481 -0.04478,-0.04477 -0.06918,-0.06207 -0.02452,-0.01817 -0.04879,-0.03543 -0.0736,-0.05201 -0.09881,-0.06747 -0.204499,-0.118068 -0.314388,-0.158482 -0.110333,-0.03967 -0.219517,-0.08199 -0.333646,-0.11236 -0.113716,-0.0313 -0.231609,-0.05267 -0.347998,-0.0774 -0.174202,-0.03942 -0.348619,-0.07824 -0.499487,-0.17406 l 0.01668,-0.03987 c 0.0076,-0.01816 -0.009,-0.04238 -0.03692,-0.05397 -0.0271,-0.01116 -0.055,-0.0066 -0.06354,0.01018 l 0.0097,-0.02367 c 0.0083,-0.02015 -0.0071,-0.0462 -0.03533,-0.05777 -0.02797,-0.01152 -0.05751,-0.0044 -0.06599,0.01558 l -0.002,0.0053 c -0.03642,-0.0259 -0.07485,-0.04713 -0.1142,-0.06599 l -0.04367,-0.02159 c 0.256232,-0.772892 0.272562,-1.629 0,-2.449477 l 0.04367,-0.02159 c 0.0393,-0.01883 0.07768,-0.04015 0.114077,-0.06599 l 0.0021,0.0049 c 0.0083,0.02015 0.03787,0.02742 0.06587,0.0157 0.02797,-0.01152 0.04379,-0.0374 0.03533,-0.05777 l -0.0097,-0.0238 c 0.0086,0.01701 0.03643,0.02164 0.06354,0.01043 0.02797,-0.01152 0.0445,-0.03569 0.03692,-0.05397 l -0.0168,-0.03987 c 0.150872,-0.09584 0.325293,-0.134583 0.499488,-0.17406 0.11647,-0.02481 0.234258,-0.04615 0.347997,-0.0774 0.114077,-0.0304 0.223424,-0.0726 0.333646,-0.1122373 0.1099,-0.040449 0.215658,-0.09099 0.314388,-0.1586045 0.02481,-0.016744 0.04929,-0.034062 0.0736,-0.05201 0.02448,-0.017279 0.04783,-0.037304 0.0693,-0.062068 0.02166,-0.024804 0.04139,-0.052921 0.05851,-0.08795 0.01746,-0.034003 0.03295,-0.073621 0.04342,-0.1248719 0.0108,-0.0553 -0.01123,-0.1142181 -0.06109,-0.1471967 -0.04365,-0.028908 -0.08242,-0.04616 -0.118861,-0.057775 -0.03694,-0.012779 -0.07101,-0.018315 -0.103651,-0.02073 -0.03262,-0.00219 -0.06342,-1.571e-4 -0.09298,0.00515 -0.02982,0.0043 -0.0594,0.00975 -0.08869,0.015333 -0.117658,0.022196 -0.228092,0.061128 -0.334381,0.1102749 -0.106029,0.049952 -0.213105,0.097207 -0.315369,0.1563965 -0.102537,0.058291 -0.20092,0.126586 -0.300772,0.1914784 -0.151034,0.095193 -0.301869,0.1910714 -0.476305,0.2299949 l -0.01668,-0.039866 c -0.0076,-0.018378 -0.03637,-0.023652 -0.06428,-0.011898 -0.02797,0.011522 -0.04454,0.035687 -0.03692,0.053972 l -0.01067,-0.025391 c -0.0083,-0.020145 -0.038,-0.027299 -0.06587,-0.015578 -0.02798,0.011522 -0.04377,0.037411 -0.03533,0.057775 l 0.002,0.00491 c -0.04407,0.00756 -0.08621,0.019591 -0.127448,0.033978 l -0.04624,0.01533 C 10.857557,3.0172657 10.240752,2.4235269 9.5130536,2.058217 l 0.01521,-0.046244 c 0.0144,-0.04115 0.02663,-0.083258 0.03422,-0.1273252 l 0.0048,0.00196 c 0.02014,0.00828 0.04606,-0.00724 0.05765,-0.03545 0.01188,-0.027974 0.0044,-0.057426 -0.01558,-0.065871 l -0.02367,-0.00969 c 0.01795,0.00572 0.04104,-0.010435 0.05225,-0.037535 0.01152,-0.027974 0.0061,-0.056801 -0.0119,-0.064399 l -0.03987,-0.01656 c 0.0389,-0.1744006 0.134904,-0.3251455 0.230118,-0.4761815 0.06484,-0.099783 0.132994,-0.19823051 0.1912334,-0.30077201 0.0592,-0.1021774 0.106528,-0.2093372 0.156519,-0.315369 0.04917,-0.1063356 0.08815,-0.2168528 0.110152,-0.3343819 0.0058,-0.029289 0.01083,-0.058839 0.01533,-0.088686 0.0052,-0.029487 0.0072,-0.060306 0.0048,-0.092979 -0.0022,-0.032619 -0.0082,-0.066712 -0.02085,-0.1036511 -0.01188,-0.036526 -0.02883,-0.075171 -0.05765,-0.1188613 -0.03125,-0.046894 -0.08874,-0.0729 -0.14732,-0.060964 -0.05129,0.010442 -0.09079,0.025591 -0.1248724,0.043178 -0.03499,0.016922 -0.06325,0.037193 -0.08795,0.058633 -0.02481,0.02135 -0.04477,0.044838 -0.06195,0.069428 -0.01816,0.024214 -0.03546,0.048619 -0.05201,0.073353 -0.06754,0.098775 -0.118155,0.204576 -0.158605,0.3145104 -0.03959,0.110314 -0.08181,0.2194089 -0.112237,0.3335233 -0.0313,0.113717 -0.05274,0.2316314 -0.0774,0.34812021 -0.03945,0.1740222 -0.07824,0.3484513 -0.174061,0.4992423 l -0.03987,-0.01656 c -0.01838,-0.00738 -0.04238,0.00902 -0.05397,0.036922 -0.01116,0.0271 -0.0064,0.055075 0.01043,0.063663 l -0.023687,-0.00957 c -0.02014,-0.00828 -0.04632,0.00724 -0.0579,0.03545 -0.01152,0.027974 -0.0042,0.057393 0.0157,0.065871 l 0.0051,0.00196 c -0.02594,0.036418 -0.04705,0.074795 -0.06587,0.1142001 l -0.02171,0.043668 c -0.772935,-0.2562596 -1.629002,-0.2726087 -2.449477,0 l -0.02159,-0.043668 c -0.0188,-0.039368 -0.03993,-0.077674 -0.06587,-0.1142001 l 0.0053,-0.00221 c 0.02015,-0.00828 0.02729,-0.037876 0.01558,-0.065871 -0.01152,-0.027975 -0.03741,-0.043752 -0.05778,-0.035327 l -0.02367,0.00969 c 0.01701,-0.00859 0.02158,-0.036492 0.01018,-0.06354 -0.01152,-0.027974 -0.03567,-0.044555 -0.05397,-0.037044 l -0.03987,0.01656 C 6.2106616,1.3544313 6.1719846,1.1799194 6.1324346,1.0057603 c -0.024522,-0.11647031 -0.04602,-0.23420221 -0.0774,-0.34799761 -0.030456,-0.1141128 -0.072686,-0.2232146 -0.112361,-0.3335233 -0.040357,-0.1100084 -0.091117,-0.2157387 -0.158604,-0.3145104 -0.01674,-0.02479 -0.0339,-0.049245 -0.05189,-0.073476 -0.01728,-0.0245 -0.0373,-0.047779 -0.06207,-0.069182 -0.0248,-0.02135 -0.05287,-0.041496 -0.08795,-0.058633 -0.03404,-0.017641 -0.0736,-0.032878 -0.124872,-0.0433 -0.01038,-0.00209 -0.02084,-0.00304 -0.03128,-0.00282 z m 2.319207,2.61605411 c 0.327026,-0.00172 0.649804,0.047654 0.957269,0.1436395 l 0.0016,1.256e-4 c -0.0092,0.029126 -0.01898,0.057939 -0.0276,0.087337 -0.0061,0.021674 -0.01065,0.043999 -0.01533,0.066484 l -0.0022,-8.585e-4 c -0.02014,-0.00828 -0.0462,0.00715 -0.05778,0.035327 -0.01152,0.027974 -0.0044,0.057509 0.01558,0.065993 l 0.02343,0.00957 c -0.01809,-0.00563 -0.0409,0.010863 -0.05201,0.037781 -0.01152,0.027975 -0.0061,0.056718 0.0119,0.064276 l 0.03067,0.012757 c -0.01566,-0.00649 -0.03785,0.010556 -0.04943,0.038762 -0.01152,0.027975 0.01038,0.063629 0.02588,0.070164 l 0.01349,0.00577 c -0.0065,0.044393 -0.01549,0.087831 -0.02797,0.1299011 -0.01638,0.056637 -0.03916,0.110457 -0.06379,0.1636337 -0.04938,0.1061551 -0.11196,0.2069323 -0.181542,0.3048199 -0.130692,0.1992928 -0.306442,0.3798968 -0.254896,0.6546578 -0.0047,0.0097 -0.01005,0.01843 -0.01545,0.02772 l -0.0341,-0.01411 c -0.01674,-0.0072 -0.03983,0.01012 -0.0514,0.03803 -0.01152,0.02797 -0.0072,0.05622 0.0093,0.06317 l -0.01729,-0.0071 c -0.01838,-0.0076 -0.04229,0.009 -0.05385,0.03692 -0.01188,0.02798 -0.0063,0.05672 0.0119,0.06428 l 0.02699,0.01116 c -0.0015,0.0036 -0.003,0.0079 -0.0047,0.0119 -0.0072,0.0222 -0.0458,0.05892 -0.06452,0.08758 -0.08968,-0.01296 -0.18168,-0.0135 -0.273663,-1.26e-4 -0.01883,-0.02855 -0.05721,-0.06527 -0.0644,-0.08758 -0.0013,-0.0036 -0.003,-0.0078 -0.0047,-0.01178 l 0.02711,-0.01116 c 0.01838,-0.0076 0.0236,-0.03644 0.01202,-0.0644 -0.01152,-0.02798 -0.03567,-0.04448 -0.05397,-0.03692 l -0.0173,0.0072 c 0.01674,-0.0072 0.02097,-0.03538 0.0093,-0.0633 -0.01152,-0.02797 -0.03451,-0.04497 -0.0514,-0.03803 l -0.0341,0.01398 c -0.0058,-0.0092 -0.0106,-0.01831 -0.01545,-0.0276 0.05154,-0.274769 -0.124225,-0.455472 -0.254896,-0.65478 -0.06952,-0.097857 -0.132184,-0.1986281 -0.181665,-0.3048199 -0.02452,-0.053122 -0.04748,-0.1070362 -0.06379,-0.1636337 -0.0126,-0.04207 -0.02122,-0.085509 -0.02797,-0.1299011 l 0.01349,-0.00552 c 0.01567,-0.00649 0.03756,-0.042069 0.02601,-0.070041 -0.01152,-0.027974 -0.03381,-0.045403 -0.04956,-0.038884 l 0.03079,-0.012757 c 0.01838,-0.00738 0.02354,-0.036355 0.01178,-0.064276 -0.01152,-0.027975 -0.03569,-0.0445 -0.05397,-0.036922 l 0.02539,-0.010672 c 0.02014,-0.00828 0.02742,-0.037876 0.0157,-0.065871 -0.01152,-0.027974 -0.03745,-0.043792 -0.05777,-0.035327 l -0.0022,9.816e-4 c -0.0043,-0.022481 -0.009,-0.044845 -0.01533,-0.066607 -0.0086,-0.029364 -0.01814,-0.058039 -0.02735,-0.087091 0.305475,-0.095577 0.616453,-0.1422717 0.92366,-0.1438848 z m -1.450133,0.362472 -3.71e-4,3.705e-4 c 0.01422,0.027094 0.02763,0.054332 0.0422,0.081081 0.0108,0.019715 0.02338,0.038814 0.03631,0.057775 l -0.0022,8.585e-4 c -0.02014,0.00828 -0.02742,0.037916 -0.0157,0.065871 0.01152,0.027974 0.03756,0.043785 0.0579,0.035327 l 0.02527,-0.010426 c -0.01816,0.00756 -0.02354,0.036395 -0.01178,0.064276 0.01152,0.027974 0.03569,0.044433 0.05397,0.036922 l 0.03079,-0.012757 c -0.01566,0.00649 -0.01909,0.034481 -0.0076,0.062436 0.01152,0.027974 0.05207,0.037748 0.06783,0.031157 l 0.01349,-0.00552 c 0.0268,0.036094 0.05106,0.073277 0.07213,0.1117469 0.02856,0.051541 0.05046,0.1056944 0.07065,0.1606898 0.04011,0.1101164 0.06715,0.2256591 0.08709,0.3440724 0.04862,0.233309 0.052,0.48524 0.28274,0.643127 0.003,0.01008 0.006,0.02011 0.0086,0.03054 l -0.03398,0.01423 c -0.01674,0.0072 -0.02109,0.03536 -0.0094,0.06329 0.01116,0.0271 0.03324,0.04385 0.04992,0.03852 l -0.0157,0.0066 c -0.01838,0.0076 -0.0236,0.03634 -0.01202,0.06428 0.01152,0.02797 0.03567,0.04441 0.05397,0.03692 l 0.02711,-0.01116 c 0.0017,0.0036 0.003,0.0079 0.0048,0.01153 0.01062,0.02079 0.0092,0.07392 0.01644,0.107453 -0.0744,0.05557 -0.139174,0.121064 -0.193442,0.193564 -0.03347,-0.0072 -0.08675,-0.0058 -0.107576,-0.01644 -0.0036,-0.0018 -0.0078,-0.0034 -0.01141,-0.0052 l 0.01104,-0.02711 c 0.0076,-0.01816 -0.0089,-0.04242 -0.0368,-0.05397 -0.02797,-0.01152 -0.05677,-0.0061 -0.0644,0.01202 l -0.0066,0.0157 c 0.0055,-0.01659 -0.01147,-0.03866 -0.03852,-0.0498 -0.02797,-0.01152 -0.05635,-0.0072 -0.0633,0.0097 l -0.01423,0.0341 c -0.01008,-0.0027 -0.02082,-0.0056 -0.03067,-0.0087 -0.157852,-0.230834 -0.409661,-0.234215 -0.643004,-0.28274 -0.118416,-0.01993 -0.234036,-0.04693 -0.344073,-0.08709 -0.05499,-0.02015 -0.109273,-0.04212 -0.160812,-0.07065 -0.03845,-0.021 -0.07562,-0.04534 -0.111624,-0.07213 l 0.0058,-0.01349 c 0.0065,-0.01566 -0.003,-0.05635 -0.03128,-0.06796 -0.02799,-0.01152 -0.0559,-0.0081 -0.06244,0.0076 l 0.01288,-0.03079 c 0.0076,-0.01838 -0.0091,-0.04235 -0.03704,-0.05397 -0.0271,-0.01116 -0.05497,-0.0065 -0.06354,0.01018 l 0.0097,-0.02367 c 0.0083,-0.02015 -0.0072,-0.04629 -0.03533,-0.0579 -0.02798,-0.01152 -0.05743,-0.0042 -0.06587,0.0157 l -9.82e-4,0.0022 c -0.01903,-0.01278 -0.03796,-0.02511 -0.05765,-0.03631 -0.0268,-0.01476 -0.05425,-0.02828 -0.08133,-0.04232 0.289978,-0.553316 0.74478,-1.0234336 1.330168,-1.3298005 z m 2.937802,2.449e-4 C 9.7861466,3.0310611 10.256325,3.4856604 10.56269,4.071132 h -3.77e-4 c -0.0268,0.01404 -0.0543,0.02749 -0.08096,0.04232 -0.01992,0.0108 -0.03883,0.02324 -0.05777,0.03619 l -8.61e-4,-0.0021 c -0.0083,-0.02015 -0.03791,-0.02742 -0.06587,-0.0157 -0.02797,0.01152 -0.04391,0.03744 -0.03545,0.05777 l 0.01055,0.02539 c -0.0076,-0.01838 -0.03641,-0.0236 -0.06428,-0.01202 -0.02797,0.01188 -0.0446,0.03579 -0.03704,0.0541 l 0.01288,0.03067 c -0.0065,-0.01566 -0.0346,-0.01897 -0.06256,-0.0075 -0.02797,0.01152 -0.03763,0.05213 -0.03116,0.06783 l 0.0055,0.01349 c -0.03607,0.0268 -0.07307,0.05112 -0.111502,0.07213 -0.05161,0.02855 -0.1059224,0.05049 -0.1609354,0.07065 -0.110007,0.04012 -0.225564,0.06716 -0.34395,0.08721 -0.233339,0.04854 -0.485324,0.05187 -0.643127,0.282618 -0.01008,0.0035 -0.02019,0.0061 -0.03067,0.0085 l -0.01423,-0.0341 c -0.0072,-0.01674 -0.0353,-0.02097 -0.0633,-0.0097 -0.02709,0.01116 -0.04382,0.03314 -0.03852,0.0498 l -0.0066,-0.0157 c -0.0076,-0.01838 -0.03652,-0.02365 -0.0644,-0.0119 -0.02797,0.01152 -0.0445,0.03581 -0.03692,0.0541 l 0.01116,0.02699 c -0.0036,0.0018 -0.0079,0.0035 -0.01153,0.0049 -0.0208,0.01062 -0.07382,0.0091 -0.107453,0.01632 -0.05557,-0.07438 -0.121059,-0.139051 -0.193564,-0.193319 0.007,-0.03347 0.0058,-0.08676 0.01644,-0.107699 0.0018,-0.0036 0.003,-0.0079 0.0048,-0.01153 l 0.02711,0.01116 c 0.01817,0.0076 0.04242,-0.0089 0.05397,-0.03692 0.01152,-0.02797 0.0063,-0.05678 -0.0119,-0.0644 l -0.0157,-0.0066 c 0.01658,0.0055 0.0386,-0.01149 0.0498,-0.03852 0.01188,-0.02798 0.0072,-0.05627 -0.0093,-0.0633 l -0.0341,-0.01411 c 0.0027,-0.01008 0.0057,-0.02031 0.0086,-0.03054 0.230742,-0.157838 0.234281,-0.409825 0.282862,-0.643127 0.01993,-0.1183966 0.04693,-0.2339106 0.08709,-0.3439496 0.02014,-0.055015 0.04212,-0.1093279 0.07065,-0.1608124 0.02101,-0.03849 0.04529,-0.075549 0.07213,-0.1116242 l 0.01349,0.00577 c 0.01567,0.00649 0.05635,-0.00347 0.06796,-0.031279 0.01152,-0.027975 0.008,-0.055924 -0.0076,-0.062436 l 0.03079,0.012757 c 0.01817,0.00756 0.04244,-0.009 0.05397,-0.036922 0.01116,-0.0271 0.0065,-0.054967 -0.01018,-0.06354 l 0.02368,0.00969 c 0.02058,0.00828 0.0463,-0.00715 0.0579,-0.035327 0.01152,-0.027974 0.0042,-0.057426 -0.0157,-0.06587 l -0.0022,-9.811e-4 c 0.01278,-0.018828 0.02513,-0.037977 0.03631,-0.057652 0.01476,-0.026803 0.0282,-0.05418 0.04232,-0.081204 z M 10.78189,4.598955 c 0.197279,0.630617 0.18645,1.284665 3.77e-4,1.880929 l -6.28e-4,6.16e-4 c -0.0292,-0.0092 -0.05812,-0.01902 -0.08746,-0.02736 -0.02168,-0.0061 -0.04407,-0.01065 -0.06648,-0.01533 l 8.6e-4,-0.0021 c 0.0083,-0.02015 -0.0075,-0.04628 -0.03533,-0.0579 -0.02799,-0.01152 -0.05751,-0.0042 -0.06599,0.0157 l -0.01043,0.02539 c 0.0076,-0.01838 -0.009,-0.04255 -0.03692,-0.05409 -0.02797,-0.01152 -0.05672,-0.0061 -0.06428,0.0119 l -0.01214,0.02932 c 0.0049,-0.01556 -0.01223,-0.03692 -0.03937,-0.04809 -0.02797,-0.01188 -0.06361,0.01014 -0.07016,0.026 l -0.0055,0.01349 C 10.244019,6.39093 10.200539,6.38196 10.158415,6.36946 10.101905,6.35308 10.048063,6.33037 9.9949036,6.3058 9.8886756,6.25628 9.7878446,6.193572 9.6899606,6.124012 9.4906476,5.993338 9.3100246,5.81769 9.0353026,5.869239 c -0.0092,-0.0048 -0.01844,-0.01005 -0.02772,-0.01545 l 0.01423,-0.0341 c 0.0072,-0.01674 -0.01,-0.03984 -0.0379,-0.0514 -0.02798,-0.01152 -0.05624,-0.0072 -0.06317,0.0093 l 0.0072,-0.01729 c 0.0076,-0.01838 -0.009,-0.04239 -0.03692,-0.05397 -0.02797,-0.01152 -0.05682,-0.0062 -0.0644,0.01178 l -0.01116,0.02711 c -0.0039,-0.0013 -0.0078,-0.0034 -0.01178,-0.0047 -0.02248,-0.0072 -0.05912,-0.04574 -0.0877,-0.06452 0.01278,-0.08967 0.01355,-0.181739 2.52e-4,-0.273663 0.02856,-0.01882 0.06513,-0.0572 0.08746,-0.0644 0.0039,-0.0013 0.0079,-0.0034 0.01202,-0.0043 l 0.01116,0.02711 c 0.0076,0.01838 0.03652,0.02365 0.0644,0.0119 0.02797,-0.01152 0.04455,-0.03581 0.03692,-0.0541 l -0.0072,-0.01717 c 0.0072,0.01674 0.03535,0.02097 0.06329,0.0097 0.02798,-0.01152 0.04489,-0.03462 0.0379,-0.0514 l -0.01411,-0.0341 c 0.0092,-0.0056 0.0181,-0.0106 0.0276,-0.01545 0.274713,0.05156 0.455388,-0.124142 0.654657,-0.254773 0.09789,-0.06958 0.198695,-0.13222 0.304943,-0.181666 0.05312,-0.02448 0.1069494,-0.04744 0.1635114,-0.06379 0.04207,-0.0126 0.08551,-0.02144 0.129901,-0.02797 l 0.0058,0.01349 c 0.0065,0.01566 0.04216,0.03744 0.07016,0.02588 0.02797,-0.01152 0.04531,-0.03374 0.03876,-0.04943 l 0.01276,0.03067 c 0.0076,0.01838 0.03645,0.02366 0.0644,0.0119 0.02704,-0.01114 0.04339,-0.0341 0.03754,-0.05213 l 0.0099,0.02355 c 0.0083,0.02015 0.03793,0.02742 0.06587,0.0157 0.02799,-0.01152 0.04375,-0.0374 0.03533,-0.05777 l -8.6e-4,-0.0022 c 0.02248,-0.0043 0.04471,-0.0089 0.06648,-0.01521 0.02937,-0.0083 0.05809,-0.01848 0.08709,-0.02748 z m -6.0362934,6.16e-4 c 0.02913,0.009 0.05812,0.01914 0.08746,0.02748 0.02166,0.0061 0.044,0.01053 0.06648,0.01521 l -8.58e-4,0.0022 c -0.0083,0.02015 0.0072,0.0462 0.03533,0.05777 0.02797,0.01152 0.05746,0.0047 0.06587,-0.0157 l 0.01043,-0.02539 c -0.0076,0.01838 0.0091,0.04258 0.03704,0.0541 0.02797,0.01152 0.05667,0.0063 0.06415,-0.0119 l 0.01276,-0.03079 c -0.0065,0.01566 0.01069,0.03796 0.03888,0.04956 0.02797,0.01152 0.06353,-0.01014 0.07004,-0.02601 l 0.0058,-0.01349 c 0.04443,0.0065 0.08781,0.01548 0.129901,0.02797 0.05656,0.01638 0.110402,0.03925 0.163633,0.06378 0.106192,0.04945 0.207028,0.112107 0.304943,0.181665 0.199293,0.130458 0.379853,0.306211 0.654657,0.254651 0.0092,0.0045 0.01844,0.01005 0.02772,0.01545 l -0.01423,0.0341 c -0.007,0.01674 0.01,0.0398 0.0379,0.0514 0.0271,0.01116 0.05456,0.0075 0.06256,-0.0081 l -0.0065,0.0157 c -0.0076,0.01838 0.0091,0.0424 0.03704,0.05397 0.02795,0.01152 0.05671,0.0063 0.06428,-0.0119 l 0.01116,-0.02711 c 0.0036,0.0015 0.0078,0.0035 0.01178,0.0048 0.02248,0.0072 0.05913,0.04574 0.0877,0.06452 -0.01278,0.08961 -0.01354,0.181574 -2.51e-4,0.273541 -0.02855,0.01883 -0.06519,0.0573 -0.08746,0.06452 -0.0039,0.0013 -0.0078,0.0034 -0.01178,0.0043 l -0.01116,-0.02711 c -0.0076,-0.01838 -0.03647,-0.02365 -0.0644,-0.0119 -0.02798,0.01152 -0.04438,0.03566 -0.0368,0.05397 l 0.0065,0.01582 c -0.0081,-0.01546 -0.03553,-0.01915 -0.06256,-0.0082 -0.02797,0.01152 -0.04502,0.03458 -0.03803,0.0514 l 0.01423,0.0341 c -0.0092,0.0056 -0.0181,0.0106 -0.0276,0.01546 -0.2748,-0.05155 -0.455467,0.124206 -0.65478,0.254896 -0.09786,0.0695 -0.19857,0.132224 -0.30482,0.181665 -0.05319,0.0245 -0.107037,0.04738 -0.163633,0.06366 -0.04207,0.0126 -0.08553,0.02144 -0.129901,0.02797 l -0.0058,-0.01349 c -0.0065,-0.01548 -0.04214,-0.03744 -0.07004,-0.02588 -0.0271,0.01116 -0.0443,0.03241 -0.0395,0.04796 l -0.01214,-0.02919 c -0.0076,-0.01838 -0.03639,-0.02366 -0.0644,-0.0119 -0.02704,0.01114 -0.04331,0.0341 -0.03754,0.05213 l -0.0099,-0.02355 c -0.0083,-0.02015 -0.03797,-0.02742 -0.06587,-0.0157 -0.02798,0.01152 -0.04379,0.03745 -0.03533,0.05778 l 8.59e-4,0.0022 c -0.02248,0.0043 -0.04476,0.009 -0.06648,0.01533 -0.02931,0.0083 -0.05816,0.01836 -0.08721,0.02735 C 4.5483916,5.849967 4.5593176,5.19597 4.7454816,4.59971 Z m 3.018024,0.459744 a 0.57931875,0.57931875 0 0 1 0.579219,0.579342 0.57931875,0.57931875 0 0 1 -0.579219,0.579219 0.57931875,0.57931875 0 0 1 -0.579342,-0.579219 0.57931875,0.57931875 0 0 1 0.579342,-0.579342 z m -0.77033,1.056382 c 0.05564,0.07438 0.121139,0.139141 0.193687,0.193318 -0.0072,0.0335 -0.0058,0.08664 -0.01644,0.107577 -0.0018,0.0036 -0.003,0.0079 -0.0048,0.01153 l -0.02711,-0.01116 c -0.01838,-0.0076 -0.04245,0.0091 -0.05397,0.03704 -0.01152,0.02798 -0.0061,0.05671 0.0119,0.06428 l 0.0157,0.0066 c -0.01659,-0.0055 -0.03864,0.01154 -0.0498,0.03864 -0.01152,0.02797 -0.0072,0.05615 0.0093,0.06317 l 0.0341,0.01411 c -0.0027,0.01008 -0.0056,0.02075 -0.0087,0.03054 -0.230743,0.157874 -0.234191,0.409785 -0.282741,0.643127 -0.01993,0.118379 -0.04698,0.233852 -0.08709,0.34395 -0.02014,0.05501 -0.04207,0.109274 -0.07053,0.160812 -0.02101,0.03845 -0.04534,0.07555 -0.07213,0.111624 l -0.01349,-0.0058 c -0.01566,-0.0065 -0.0564,0.0031 -0.06796,0.03128 -0.01152,0.02797 -0.0081,0.05603 0.0076,0.06256 l -0.03079,-0.01288 c -0.01838,-0.0076 -0.0424,0.0091 -0.05397,0.03705 -0.01188,0.02797 -0.0063,0.05677 0.0119,0.06428 l -0.02539,-0.01055 c -0.02015,-0.0083 -0.04616,0.0076 -0.05777,0.03545 -0.01152,0.02797 -0.0043,0.05743 0.01558,0.06587 l 0.0022,8.61e-4 c -0.01278,0.01905 -0.02514,0.03819 -0.03631,0.05777 -0.01476,0.0268 -0.02823,0.05409 -0.04232,0.0812 C 5.7405916,8.048022 5.2704336,7.593324 4.9640246,7.007897 l 7.36e-4,9.81e-4 c 0.02709,-0.01422 0.05433,-0.02734 0.08108,-0.0422 0.01993,-0.0108 0.03883,-0.02336 0.05777,-0.03631 l 8.59e-4,0.0022 c 0.0083,0.02014 0.03786,0.02729 0.06587,0.01558 0.02799,-0.01188 0.04379,-0.03734 0.03533,-0.05777 l -0.01043,-0.02539 c 0.0076,0.01838 0.03637,0.02365 0.06428,0.0119 0.02797,-0.01188 0.04455,-0.03579 0.03692,-0.0541 l -0.01276,-0.03067 c 0.0065,0.01548 0.03456,0.0191 0.06256,0.0076 0.02798,-0.01152 0.03768,-0.0522 0.03116,-0.06796 l -0.0058,-0.01362 c 0.03604,-0.0268 0.0731,-0.0511 0.111625,-0.07213 0.05154,-0.02856 0.105799,-0.05028 0.160812,-0.07053 0.110045,-0.04012 0.225563,-0.06713 0.34395,-0.08709 0.233336,-0.04857 0.485283,-0.052 0.643127,-0.282741 0.01008,-0.0034 0.02005,-0.0061 0.03054,-0.0085 l 0.01423,0.0341 c 0.007,0.01674 0.03535,0.02097 0.0633,0.0093 0.02797,-0.01152 0.04501,-0.0347 0.03803,-0.05152 l 0.0071,0.0173 c 0.0076,0.01838 0.03642,0.02365 0.06428,0.0119 0.02799,-0.01152 0.04443,-0.03569 0.03692,-0.05397 l -0.01116,-0.02711 c 0.0036,-0.0018 0.0079,-0.0034 0.01153,-0.0052 0.0208,-0.01062 0.07381,-0.0092 0.107331,-0.01644 z m 1.539433,6.15e-4 c 0.03347,0.0072 0.08661,0.0055 0.107453,0.01668 0.0036,0.0018 0.0079,0.0035 0.01153,0.0049 l -0.01116,0.02711 c -0.0076,0.01838 0.009,0.04243 0.03692,0.05397 0.02797,0.01152 0.05677,0.0061 0.06428,-0.01202 l 0.0066,-0.0157 c -0.0055,0.01659 0.01148,0.03859 0.03852,0.0498 0.02797,0.01152 0.05633,0.0072 0.0633,-0.0097 l 0.01423,-0.0341 c 0.01008,0.0027 0.02075,0.0056 0.03054,0.0085 0.157856,0.23074 0.409824,0.234311 0.643127,0.282863 0.118416,0.01993 0.233893,0.04689 0.34395,0.08709 0.05503,0.02015 0.109256,0.04207 0.1608124,0.07053 0.03845,0.02101 0.07559,0.04534 0.111625,0.07213 l -0.0058,0.01349 c -0.0065,0.01567 0.0031,0.05642 0.03128,0.06796 0.02798,0.01152 0.05592,0.0082 0.06244,-0.0076 l -0.01276,0.03079 c -0.0076,0.01816 0.009,0.04234 0.03704,0.05397 0.0271,0.01116 0.05482,0.0065 0.06342,-0.01018 l -0.0098,0.02367 c -0.0083,0.02015 0.0075,0.04623 0.03533,0.0579 0.02797,0.01152 0.05753,0.0042 0.06599,-0.0157 l 8.6e-4,-0.0022 c 0.01905,0.01278 0.03819,0.02512 0.05777,0.03631 0.0268,0.01476 0.05411,0.02823 0.0812,0.04232 -0.289959,0.553162 -0.7445764,1.023395 -1.3300454,1.3298 -0.01422,-0.02709 -0.02775,-0.05422 -0.04232,-0.08108 h 0.0011 c -0.0108,-0.01972 -0.02336,-0.03876 -0.03631,-0.05777 l 0.0022,-8.61e-4 c 0.02015,-0.0083 0.02741,-0.03785 0.0157,-0.06587 -0.01152,-0.02798 -0.03745,-0.04379 -0.05777,-0.03533 l -0.02367,0.0097 c 0.01701,-0.0086 0.02163,-0.03658 0.01043,-0.06366 -0.01152,-0.02797 -0.03579,-0.04443 -0.05409,-0.03692 l -0.03067,0.01276 c 0.01567,-0.0065 0.01918,-0.03458 0.0075,-0.06256 -0.01188,-0.02798 -0.05217,-0.03765 -0.06796,-0.03116 l -0.01349,0.0058 c -0.02683,-0.03609 -0.05105,-0.07314 -0.07213,-0.111624 -0.02856,-0.05157 -0.05034,-0.105926 -0.07053,-0.160813 -0.04017,-0.110026 -0.06706,-0.225604 -0.08709,-0.344072 -0.04853,-0.233309 -0.05197,-0.485241 -0.28274,-0.643127 -0.003,-0.01008 -0.0062,-0.02014 -0.0087,-0.03054 l 0.0341,-0.01423 c 0.01674,-0.0072 0.02097,-0.03529 0.0093,-0.06329 -0.01116,-0.0271 -0.03314,-0.04383 -0.0498,-0.03852 l 0.0157,-0.0066 c 0.01816,-0.0076 0.02365,-0.03646 0.0119,-0.06428 -0.01152,-0.02799 -0.03579,-0.0445 -0.0541,-0.03692 l -0.02711,0.01116 c -0.0018,-0.0036 -0.003,-0.0079 -0.0052,-0.01153 -0.01062,-0.0208 -0.0092,-0.07392 -0.01644,-0.107454 0.07438,-0.05557 0.139253,-0.121033 0.193441,-0.193686 z M 7.6273406,6.49191 c 0.08965,0.01296 0.18168,0.01346 0.273664,1.25e-4 0.01883,0.02855 0.05724,0.06522 0.0644,0.08758 0.0013,0.0036 0.0029,0.0078 0.0042,0.01178 l -0.02699,0.01116 c -0.01817,0.0076 -0.02366,0.03642 -0.0119,0.0644 0.01152,0.02797 0.03569,0.04443 0.05397,0.0368 l 0.0157,-0.0064 c -0.01546,0.0081 -0.01901,0.03539 -0.0077,0.06244 0.01152,0.02797 0.03453,0.04501 0.0514,0.03802 l 0.03398,-0.01411 c 0.0058,0.009 0.01065,0.01843 0.01533,0.02772 -0.05154,0.274795 0.124225,0.45535 0.254895,0.654658 0.06958,0.09789 0.132256,0.198655 0.181666,0.304819 0.02452,0.05312 0.04743,0.107124 0.06366,0.163757 0.0126,0.04202 0.02122,0.08542 0.02797,0.129901 l -0.01349,0.0055 c -0.01567,0.0065 -0.03756,0.04216 -0.02588,0.07016 0.01152,0.02797 0.03364,0.04535 0.04943,0.03876 l -0.03079,0.01276 c -0.0184,0.0076 -0.02359,0.03641 -0.01202,0.0644 0.01114,0.02704 0.03408,0.04332 0.05213,0.03754 l -0.02343,0.0099 c -0.02014,0.0083 -0.02741,0.03797 -0.0157,0.06587 0.01188,0.02797 0.03742,0.04379 0.05777,0.03533 l 0.0022,-9.8e-4 c 0.0043,0.02248 0.009,0.0448 0.01533,0.06648 0.0083,0.02935 0.01837,0.05822 0.02735,0.08721 -0.630576,0.197365 -1.284543,0.186347 -1.880806,2.51e-4 l -5.02e-4,1.26e-4 c 0.0092,-0.02907 0.01881,-0.05801 0.02735,-0.08734 0.0061,-0.02167 0.01065,-0.04412 0.01533,-0.06661 l 0.0022,9.79e-4 c 0.02014,0.0083 0.04621,-0.0072 0.05777,-0.03545 0.01152,-0.02797 0.0042,-0.05739 -0.0157,-0.06587 l -0.02539,-0.01043 c 0.01838,0.0076 0.04242,-0.009 0.05397,-0.03692 0.01152,-0.02798 0.0063,-0.05675 -0.01202,-0.06428 l -0.03079,-0.01276 c 0.01566,0.0065 0.03796,-0.01068 0.04956,-0.03889 0.01152,-0.02797 -0.01002,-0.06345 -0.02588,-0.07004 l -0.01362,-0.0058 c 0.0065,-0.0444 0.01551,-0.08781 0.02797,-0.129901 0.01638,-0.05656 0.03921,-0.110439 0.06379,-0.163634 0.04942,-0.106265 0.112069,-0.207013 0.181665,-0.304943 0.130603,-0.199292 0.306335,-0.379851 0.254773,-0.654657 0.0048,-0.0092 0.01006,-0.01845 0.01546,-0.02772 l 0.0341,0.01423 c 0.01674,0.0072 0.03994,-0.01012 0.05152,-0.03803 0.01152,-0.02798 0.0072,-0.05626 -0.0093,-0.0633 l 0.01717,0.0072 c 0.01839,0.0076 0.04247,-0.0091 0.05409,-0.03704 0.01152,-0.02797 0.0061,-0.05671 -0.0119,-0.06428 l -0.02711,-0.01116 c 0.0015,-0.0036 0.003,-0.0079 0.0047,-0.0119 0.0072,-0.02249 0.04578,-0.05898 0.06452,-0.08758 z" />
</svg>
