<?xml version="1.0" encoding="UTF-8" standalone="no"?>
<svg
   width="230"
   height="250"
   viewBox="-1 -1 34.5 37.5"
   shape-rendering="geometricPrecision"
   id="qr code"
   version="1.1"
   sodipodi:docname="qr.svg"
   inkscape:version="1.1.2 (b8e25be833, 2022-02-05)"
   xmlns:inkscape="http://www.inkscape.org/namespaces/inkscape"
   xmlns:sodipodi="http://sodipodi.sourceforge.net/DTD/sodipodi-0.dtd"
   xmlns="http://www.w3.org/2000/svg"
   xmlns:svg="http://www.w3.org/2000/svg">
  <defs
     id="defs838" />
  <sodipodi:namedview
     id="namedview836"
     pagecolor="#505050"
     bordercolor="#eeeeee"
     borderopacity="1"
     inkscape:pageshadow="0"
     inkscape:pageopacity="0"
     inkscape:pagecheckerboard="0"
     showgrid="false"
     inkscape:zoom="2"
     inkscape:cx="6"
     inkscape:cy="157.75"
     inkscape:window-width="1920"
     inkscape:window-height="1040"
     inkscape:window-x="0"
     inkscape:window-y="0"
     inkscape:window-maximized="1"
     inkscape:current-layer="qr code"
     showguides="true"
     inkscape:guide-bbox="true">
    <sodipodi:guide
       position="-3.8183766,11.196163"
       orientation="1,0"
       id="guide1974" />
    <sodipodi:guide
       position="32.297102,10.453701"
       orientation="1,0"
       id="guide1976" />
  </sodipodi:namedview>
  <path
     d="m 27.704056,31.635601 c -1.802931,-0.305997 -3.608654,-0.539782 -5.415424,-0.701379 v 1.320182 z M 10.185572,30.931971 C 8.3781931,31.093369 6.57404,31.327422 4.7749448,31.63403 l 5.4106272,0.620305 z m 18.426359,-2.005252 v 2.868472 l -6.584909,0.75247 V 30.91181 c -3.861894,-0.330492 -7.727886,-0.331267 -11.579839,-0.0021 v 1.6381 L 3.8707493,31.793831 v -2.868925 c 8.1987677,-2.122185 16.5007147,-2.129509 24.7411817,0.0018 z m 3.681732,2.55883 c -0.850844,-0.373511 -1.854731,-0.802543 -3.420121,-1.143762 v 1.686839 l -5.041844,0.576092 c 4.934148,0.287494 7.079266,1.579569 8.461965,2.314539 L 31.297102,32.489243 Z M 0.18048089,34.919257 1.1769463,32.489243 0.18048089,31.485549 C 1.0328602,31.111358 2.0387261,30.681331 3.6091389,30.339773 v 1.687292 l 5.037292,0.577444 c -4.9369731,0.286986 -7.0829288,1.579613 -8.46595001,2.314748"
     style="fill:#000000;fill-opacity:1;fill-rule:nonzero;stroke:none;stroke-width:0.00872037"
     id="path16" />
  <rect
     id="qr background"
     fill-opacity="1"
     fill="#ffffff"
     x="2.737072"
     y="0.0052570002"
     width="27"
     height="27"
     ry="1.35" />
  <path
     fill-opacity="1"
     fill="#000000"
     id="qr dark pixels"
     fill-rule="evenodd"
     d="m 11.737072,1.205257 a 0.2,0.2 0 0 1 0.2,-0.2 h 1.6 a 0.2,0.2 0 0 1 0.2,0.2 v 0.6 a 0.2,0.2 0 0 1 -0.2,0.2 h -1.6 a 0.2,0.2 0 0 1 -0.2,-0.2 z m 5,1 a 0.2,0.2 0 0 1 0.2,-0.2 h 1.6 a 0.2,0.2 0 0 1 0.2,0.2 v 1.6 a 0.2,0.2 0 0 1 -0.2,0.2 h -2.6 a 0.2,0.2 0 0 0 -0.2,0.2 v 1.6 a 0.2,0.2 0 0 1 -0.2,0.2 h -1.6 a 0.2,0.2 0 0 0 -0.2,0.2 v 0.6 a 0.2,0.2 0 0 1 -0.2,0.2 h -0.6 a 0.2,0.2 0 0 1 -0.2,-0.2 v -0.6 a 0.2,0.2 0 0 0 -0.2,-0.2 h -0.6 a 0.2,0.2 0 0 1 -0.2,-0.2 v -2.6 a 0.2,0.2 0 0 1 0.2,-0.2 h 0.6 a 0.2,0.2 0 0 1 0.2,0.2 v 0.6 a 0.2,0.2 0 0 0 0.2,0.2 h 0.6 a 0.2,0.2 0 0 1 0.2,0.2 v 0.6 a 0.2,0.2 0 0 0 0.2,0.2 h 0.6 a 0.2,0.2 0 0 0 0.2,-0.2 v -1.6 a 0.2,0.2 0 0 1 0.2,-0.2 h 1.6 a 0.2,0.2 0 0 0 0.2,-0.2 z m 3,0 a 0.2,0.2 0 0 1 0.2,-0.2 h 0.6 a 0.2,0.2 0 0 1 0.2,0.2 v 0.6 a 0.2,0.2 0 0 1 -0.2,0.2 h -0.6 a 0.2,0.2 0 0 1 -0.2,-0.2 z m -1,2 a 0.2,0.2 0 0 1 0.2,-0.2 h 1.6 a 0.2,0.2 0 0 1 0.2,0.2 v 3.6 a 0.2,0.2 0 0 1 -0.2,0.2 h -0.6 a 0.2,0.2 0 0 1 -0.2,-0.2 v -1.6 a 0.2,0.2 0 0 0 -0.2,-0.2 h -0.6 a 0.2,0.2 0 0 0 -0.2,0.2 v 1.6 a 0.2,0.2 0 0 0 0.2,0.2 h 0.6 a 0.2,0.2 0 0 1 0.2,0.2 v 0.6 a 0.2,0.2 0 0 1 -0.2,0.2 h -0.6 a 0.2,0.2 0 0 0 -0.2,0.2 v 0.6 a 0.2,0.2 0 0 1 -0.2,0.2 h -1.6 a 0.2,0.2 0 0 1 -0.2,-0.2 v -1.6 a 0.2,0.2 0 0 1 0.2,-0.2 h 0.6 a 0.2,0.2 0 0 0 0.2,-0.2 v -1.6 a 0.2,0.2 0 0 0 -0.2,-0.2 h -0.6 a 0.2,0.2 0 0 1 -0.2,-0.2 v -0.6 a 0.2,0.2 0 0 1 0.2,-0.2 h 1.6 a 0.2,0.2 0 0 0 0.2,-0.2 z m -3,2 a 0.2,0.2 0 0 1 0.2,-0.2 h 0.6 a 0.2,0.2 0 0 1 0.2,0.2 v 1.6 a 0.2,0.2 0 0 1 -0.2,0.2 h -0.6 a 0.2,0.2 0 0 1 -0.2,-0.2 z m -4,1 a 0.2,0.2 0 0 1 0.2,-0.2 h 0.6 a 0.2,0.2 0 0 1 0.2,0.2 v 0.6 a 0.2,0.2 0 0 1 -0.2,0.2 h -0.6 a 0.2,0.2 0 0 1 -0.2,-0.2 z m 2,0 a 0.2,0.2 0 0 1 0.2,-0.2 h 0.6 a 0.2,0.2 0 0 1 0.2,0.2 v 0.6 a 0.2,0.2 0 0 1 -0.2,0.2 h -0.6 a 0.2,0.2 0 0 1 -0.2,-0.2 z m -1,1 a 0.2,0.2 0 0 1 0.2,-0.2 h 0.6 a 0.2,0.2 0 0 1 0.2,0.2 v 0.6 a 0.2,0.2 0 0 1 -0.2,0.2 h -0.6 a 0.2,0.2 0 0 1 -0.2,-0.2 z m 2,0 a 0.2,0.2 0 0 1 0.2,-0.2 h 0.6 a 0.2,0.2 0 0 1 0.2,0.2 v 0.6 a 0.2,0.2 0 0 1 -0.2,0.2 h -0.6 a 0.2,0.2 0 0 1 -0.2,-0.2 z m -11,1 a 0.2,0.2 0 0 1 0.2,-0.2 h 3.6 a 0.2,0.2 0 0 1 0.2,0.2 v 0.6 a 0.2,0.2 0 0 0 0.2,0.2 h 1.6 a 0.2,0.2 0 0 1 0.2,0.2 v 0.6 a 0.2,0.2 0 0 0 0.2,0.2 h 0.6 a 0.2,0.2 0 0 1 0.2,0.2 v 0.6 a 0.2,0.2 0 0 1 -0.2,0.2 h -1.6 a 0.2,0.2 0 0 1 -0.2,-0.2 v -0.6 a 0.2,0.2 0 0 0 -0.2,-0.2 h -1.6 a 0.2,0.2 0 0 1 -0.2,-0.2 v -0.6 a 0.2,0.2 0 0 0 -0.2,-0.2 h -0.6 a 0.2,0.2 0 0 0 -0.2,0.2 v 0.6 a 0.2,0.2 0 0 0 0.2,0.2 h 0.6 a 0.2,0.2 0 0 1 0.2,0.2 v 0.6 a 0.2,0.2 0 0 0 0.2,0.2 h 1.6 a 0.2,0.2 0 0 1 0.2,0.2 v 0.6 a 0.2,0.2 0 0 0 0.2,0.2 h 1.6 a 0.2,0.2 0 0 0 0.2,-0.2 v -0.6 a 0.2,0.2 0 0 1 0.2,-0.2 h 0.6 a 0.2,0.2 0 0 1 0.2,0.2 v 2.6 a 0.2,0.2 0 0 1 -0.2,0.2 h -0.6 a 0.2,0.2 0 0 1 -0.2,-0.2 v -0.6 a 0.2,0.2 0 0 0 -0.2,-0.2 h -2.6 a 0.2,0.2 0 0 1 -0.2,-0.2 v -0.6 a 0.2,0.2 0 0 0 -0.2,-0.2 h -2.6 a 0.2,0.2 0 0 1 -0.2,-0.2 v -0.6 a 0.2,0.2 0 0 0 -0.2,-0.2 h -0.6 a 0.2,0.2 0 0 1 -0.2,-0.2 v -0.6 a 0.2,0.2 0 0 1 0.2,-0.2 h 0.6 a 0.2,0.2 0 0 0 0.2,-0.2 v -0.6 a 0.2,0.2 0 0 0 -0.2,-0.2 h -0.6 a 0.2,0.2 0 0 1 -0.2,-0.2 z m 6,0 a 0.2,0.2 0 0 1 0.2,-0.2 h 0.6 a 0.2,0.2 0 0 1 0.2,0.2 v 0.6 a 0.2,0.2 0 0 1 -0.2,0.2 h -0.6 a 0.2,0.2 0 0 1 -0.2,-0.2 z m 2,0 a 0.2,0.2 0 0 1 0.2,-0.2 h 0.6 a 0.2,0.2 0 0 1 0.2,0.2 v 0.6 a 0.2,0.2 0 0 0 0.2,0.2 h 0.6 a 0.2,0.2 0 0 1 0.2,0.2 v 0.6 a 0.2,0.2 0 0 1 -0.2,0.2 h -0.6 a 0.2,0.2 0 0 0 -0.2,0.2 v 0.6 a 0.2,0.2 0 0 1 -0.2,0.2 h -0.6 a 0.2,0.2 0 0 1 -0.2,-0.2 v -0.6 a 0.2,0.2 0 0 0 -0.2,-0.2 h -0.6 a 0.2,0.2 0 0 1 -0.2,-0.2 v -0.6 a 0.2,0.2 0 0 1 0.2,-0.2 h 0.6 a 0.2,0.2 0 0 0 0.2,-0.2 z m 9,0 a 0.2,0.2 0 0 1 0.2,-0.2 h 0.6 a 0.2,0.2 0 0 1 0.2,0.2 v 1.6 a 0.2,0.2 0 0 1 -0.2,0.2 h -1.6 a 0.2,0.2 0 0 1 -0.2,-0.2 v -0.6 a 0.2,0.2 0 0 1 0.2,-0.2 h 0.6 a 0.2,0.2 0 0 0 0.2,-0.2 z m 3,0 a 0.2,0.2 0 0 1 0.2,-0.2 h 2.6 a 0.2,0.2 0 0 1 0.2,0.2 v 0.6 a 0.2,0.2 0 0 1 -0.2,0.2 h -2.6 a 0.2,0.2 0 0 1 -0.2,-0.2 z m 4,0 a 0.2,0.2 0 0 1 0.2,-0.2 h 0.6 a 0.2,0.2 0 0 1 0.2,0.2 v 0.6 a 0.2,0.2 0 0 1 -0.2,0.2 h -0.6 a 0.2,0.2 0 0 1 -0.2,-0.2 z m -5,1 a 0.2,0.2 0 0 1 0.2,-0.2 h 0.6 a 0.2,0.2 0 0 1 0.2,0.2 v 0.6 a 0.2,0.2 0 0 0 0.2,0.2 h 0.6 a 0.2,0.2 0 0 1 0.2,0.2 v 0.6 a 0.2,0.2 0 0 0 0.2,0.2 h 1.6 a 0.2,0.2 0 0 1 0.2,0.2 v 0.6 a 0.2,0.2 0 0 0 0.2,0.2 h 1.6 a 0.2,0.2 0 0 1 0.2,0.2 v 1.6 a 0.2,0.2 0 0 1 -0.2,0.2 h -0.6 a 0.2,0.2 0 0 1 -0.2,-0.2 v -0.6 a 0.2,0.2 0 0 0 -0.2,-0.2 h -1.6 a 0.2,0.2 0 0 1 -0.2,-0.2 v -0.6 a 0.2,0.2 0 0 0 -0.2,-0.2 h -0.6 a 0.2,0.2 0 0 0 -0.2,0.2 v 3.6 a 0.2,0.2 0 0 0 0.2,0.2 h 2.6 a 0.2,0.2 0 0 0 0.2,-0.2 v -0.6 a 0.2,0.2 0 0 1 0.2,-0.2 h 0.6 a 0.2,0.2 0 0 1 0.2,0.2 v 4.6 a 0.2,0.2 0 0 1 -0.2,0.2 h -1.6 a 0.2,0.2 0 0 1 -0.2,-0.2 v -0.6 a 0.2,0.2 0 0 0 -0.2,-0.2 h -0.6 a 0.2,0.2 0 0 1 -0.2,-0.2 v -1.6 a 0.2,0.2 0 0 0 -0.2,-0.2 h -0.6 a 0.2,0.2 0 0 0 -0.2,0.2 v 2.6 a 0.2,0.2 0 0 0 0.2,0.2 h 0.6 a 0.2,0.2 0 0 1 0.2,0.2 v 0.6 a 0.2,0.2 0 0 0 0.2,0.2 h 2.6 a 0.2,0.2 0 0 1 0.2,0.2 v 0.6 a 0.2,0.2 0 0 1 -0.2,0.2 h -0.6 a 0.2,0.2 0 0 0 -0.2,0.2 v 0.6 a 0.2,0.2 0 0 1 -0.2,0.2 h -0.6 a 0.2,0.2 0 0 0 -0.2,0.2 v 0.6 a 0.2,0.2 0 0 0 0.2,0.2 h 1.6 a 0.2,0.2 0 0 1 0.2,0.2 v 0.6 a 0.2,0.2 0 0 1 -0.2,0.2 h -7.6 a 0.2,0.2 0 0 1 -0.2,-0.2 v -2.6 a 0.2,0.2 0 0 0 -0.2,-0.2 h -0.6 a 0.2,0.2 0 0 1 -0.2,-0.2 v -1.6 a 0.2,0.2 0 0 0 -0.2,-0.2 h -0.6 a 0.2,0.2 0 0 1 -0.2,-0.2 v -0.6 a 0.2,0.2 0 0 1 0.2,-0.2 h 0.6 a 0.2,0.2 0 0 0 0.2,-0.2 v -0.6 a 0.2,0.2 0 0 0 -0.2,-0.2 h -0.6 a 0.2,0.2 0 0 1 -0.2,-0.2 v -0.6 a 0.2,0.2 0 0 1 0.2,-0.2 h 0.6 a 0.2,0.2 0 0 0 0.2,-0.2 v -0.6 a 0.2,0.2 0 0 0 -0.2,-0.2 h -0.6 a 0.2,0.2 0 0 1 -0.2,-0.2 v -0.6 a 0.2,0.2 0 0 1 0.2,-0.2 h 0.6 a 0.2,0.2 0 0 0 0.2,-0.2 v -0.6 a 0.2,0.2 0 0 1 0.2,-0.2 h 0.6 a 0.2,0.2 0 0 1 0.2,0.2 v 0.6 a 0.2,0.2 0 0 0 0.2,0.2 h 0.6 a 0.2,0.2 0 0 1 0.2,0.2 v 0.6 a 0.2,0.2 0 0 0 0.2,0.2 h 0.6 a 0.2,0.2 0 0 0 0.2,-0.2 v -0.6 a 0.2,0.2 0 0 1 0.2,-0.2 h 0.6 a 0.2,0.2 0 0 0 0.2,-0.2 v -0.6 a 0.2,0.2 0 0 0 -0.2,-0.2 h -1.6 a 0.2,0.2 0 0 1 -0.2,-0.2 v -0.6 a 0.2,0.2 0 0 0 -0.2,-0.2 h -0.6 a 0.2,0.2 0 0 1 -0.2,-0.2 v -1.6 a 0.2,0.2 0 0 1 0.2,-0.2 h 0.6 a 0.2,0.2 0 0 1 0.2,0.2 v 0.6 a 0.2,0.2 0 0 0 0.2,0.2 h 0.6 a 0.2,0.2 0 0 1 0.2,0.2 v 0.6 a 0.2,0.2 0 0 0 0.2,0.2 h 0.6 a 0.2,0.2 0 0 0 0.2,-0.2 v -1.6 a 0.2,0.2 0 0 0 -0.2,-0.2 h -0.6 a 0.2,0.2 0 0 1 -0.2,-0.2 z m -2,8 a 0.2,0.2 0 0 1 0.2,-0.2 h 2.6 a 0.2,0.2 0 0 1 0.2,0.2 v 2.6 a 0.2,0.2 0 0 1 -0.2,0.2 h -2.6 a 0.2,0.2 0 0 1 -0.2,-0.2 z m 6,0 a 0.2,0.2 0 0 1 0.2,-0.2 h 0.6 a 0.2,0.2 0 0 1 0.2,0.2 v 0.6 a 0.2,0.2 0 0 1 -0.2,0.2 h -0.6 a 0.2,0.2 0 0 1 -0.2,-0.2 z m -4,4 a 0.2,0.2 0 0 1 0.2,-0.2 h 0.6 a 0.2,0.2 0 0 1 0.2,0.2 v 2.6 a 0.2,0.2 0 0 1 -0.2,0.2 h -1.6 a 0.2,0.2 0 0 1 -0.2,-0.2 v -0.6 a 0.2,0.2 0 0 1 0.2,-0.2 h 0.6 a 0.2,0.2 0 0 0 0.2,-0.2 z m 2,1 a 0.2,0.2 0 0 1 0.2,-0.2 h 0.6 a 0.2,0.2 0 0 1 0.2,0.2 v 1.6 a 0.2,0.2 0 0 1 -0.2,0.2 h -0.6 a 0.2,0.2 0 0 1 -0.2,-0.2 z m 2,-13 a 0.2,0.2 0 0 1 0.2,-0.2 h 0.6 a 0.2,0.2 0 0 1 0.2,0.2 v 0.6 a 0.2,0.2 0 0 1 -0.2,0.2 h -0.6 a 0.2,0.2 0 0 1 -0.2,-0.2 z m -9,1 a 0.2,0.2 0 0 1 0.2,-0.2 h 0.6 a 0.2,0.2 0 0 1 0.2,0.2 v 0.6 a 0.2,0.2 0 0 0 0.2,0.2 h 0.6 a 0.2,0.2 0 0 1 0.2,0.2 v 0.6 a 0.2,0.2 0 0 1 -0.2,0.2 h -3.6 a 0.2,0.2 0 0 0 -0.2,0.2 v 1.6 a 0.2,0.2 0 0 1 -0.2,0.2 h -0.6 a 0.2,0.2 0 0 0 -0.2,0.2 v 0.6 a 0.2,0.2 0 0 1 -0.2,0.2 h -2.6 a 0.2,0.2 0 0 1 -0.2,-0.2 v -0.6 a 0.2,0.2 0 0 1 0.2,-0.2 h 0.6 a 0.2,0.2 0 0 0 0.2,-0.2 v -1.6 a 0.2,0.2 0 0 1 0.2,-0.2 h 0.6 a 0.2,0.2 0 0 1 0.2,0.2 v 0.6 a 0.2,0.2 0 0 0 0.2,0.2 h 0.6 a 0.2,0.2 0 0 0 0.2,-0.2 v -1.6 a 0.2,0.2 0 0 1 0.2,-0.2 h 2.6 a 0.2,0.2 0 0 0 0.2,-0.2 z m -11,3 a 0.2,0.2 0 0 1 0.2,-0.2 h 0.6 a 0.2,0.2 0 0 1 0.2,0.2 v 1.6 a 0.2,0.2 0 0 0 0.2,0.2 h 0.6 a 0.2,0.2 0 0 0 0.2,-0.2 v -0.6 a 0.2,0.2 0 0 1 0.2,-0.2 h 1.6 a 0.2,0.2 0 0 1 0.2,0.2 v 0.6 a 0.2,0.2 0 0 1 -0.2,0.2 h -0.6 a 0.2,0.2 0 0 0 -0.2,0.2 v 0.6 a 0.2,0.2 0 0 0 0.2,0.2 h 0.6 a 0.2,0.2 0 0 1 0.2,0.2 v 0.6 a 0.2,0.2 0 0 1 -0.2,0.2 h -1.6 a 0.2,0.2 0 0 1 -0.2,-0.2 v -0.6 a 0.2,0.2 0 0 0 -0.2,-0.2 h -0.6 a 0.2,0.2 0 0 0 -0.2,0.2 v 0.6 a 0.2,0.2 0 0 1 -0.2,0.2 h -0.6 a 0.2,0.2 0 0 1 -0.2,-0.2 v -1.6 a 0.2,0.2 0 0 0 -0.2,-0.2 h -1.6 a 0.2,0.2 0 0 1 -0.2,-0.2 v -0.6 a 0.2,0.2 0 0 1 0.2,-0.2 h 1.6 a 0.2,0.2 0 0 0 0.2,-0.2 z m 10,0 a 0.2,0.2 0 0 1 0.2,-0.2 h 0.6 a 0.2,0.2 0 0 1 0.2,0.2 v 0.6 a 0.2,0.2 0 0 1 -0.2,0.2 h -0.6 a 0.2,0.2 0 0 1 -0.2,-0.2 z m 2,0 a 0.2,0.2 0 0 1 0.2,-0.2 h 0.6 a 0.2,0.2 0 0 1 0.2,0.2 v 0.6 a 0.2,0.2 0 0 1 -0.2,0.2 h -0.6 a 0.2,0.2 0 0 1 -0.2,-0.2 z m -3,1 a 0.2,0.2 0 0 1 0.2,-0.2 h 0.6 a 0.2,0.2 0 0 1 0.2,0.2 v 0.6 a 0.2,0.2 0 0 0 0.2,0.2 h 0.6 a 0.2,0.2 0 0 1 0.2,0.2 v 0.6 a 0.2,0.2 0 0 1 -0.2,0.2 h -1.6 a 0.2,0.2 0 0 1 -0.2,-0.2 z m 2,0 a 0.2,0.2 0 0 1 0.2,-0.2 h 0.6 a 0.2,0.2 0 0 1 0.2,0.2 v 0.6 a 0.2,0.2 0 0 1 -0.2,0.2 h -0.6 a 0.2,0.2 0 0 1 -0.2,-0.2 z m 8,0 a 0.2,0.2 0 0 1 0.2,-0.2 h 1.6 a 0.2,0.2 0 0 1 0.2,0.2 v 0.6 a 0.2,0.2 0 0 1 -0.2,0.2 h -1.6 a 0.2,0.2 0 0 1 -0.2,-0.2 z m -22,1 a 0.2,0.2 0 0 1 0.2,-0.2 h 0.6 a 0.2,0.2 0 0 1 0.2,0.2 v 0.6 a 0.2,0.2 0 0 1 -0.2,0.2 h -0.6 a 0.2,0.2 0 0 1 -0.2,-0.2 z m 7,0 a 0.2,0.2 0 0 1 0.2,-0.2 h 0.6 a 0.2,0.2 0 0 1 0.2,0.2 v 0.6 a 0.2,0.2 0 0 1 -0.2,0.2 h -0.6 a 0.2,0.2 0 0 1 -0.2,-0.2 z m 4,1 a 0.2,0.2 0 0 1 0.2,-0.2 h 0.6 a 0.2,0.2 0 0 1 0.2,0.2 v 0.6 a 0.2,0.2 0 0 1 -0.2,0.2 h -0.6 a 0.2,0.2 0 0 1 -0.2,-0.2 z m -3,1 a 0.2,0.2 0 0 1 0.2,-0.2 h 2.6 a 0.2,0.2 0 0 1 0.2,0.2 v 0.6 a 0.2,0.2 0 0 0 0.2,0.2 h 0.6 a 0.2,0.2 0 0 0 0.2,-0.2 v -0.6 a 0.2,0.2 0 0 1 0.2,-0.2 h 1.6 a 0.2,0.2 0 0 1 0.2,0.2 v 0.6 a 0.2,0.2 0 0 1 -0.2,0.2 h -0.6 a 0.2,0.2 0 0 0 -0.2,0.2 v 1.6 a 0.2,0.2 0 0 0 0.2,0.2 h 0.6 a 0.2,0.2 0 0 1 0.2,0.2 v 0.6 a 0.2,0.2 0 0 0 0.2,0.2 h 0.6 a 0.2,0.2 0 0 1 0.2,0.2 v 0.6 a 0.2,0.2 0 0 1 -0.2,0.2 h -0.6 a 0.2,0.2 0 0 0 -0.2,0.2 v 0.6 a 0.2,0.2 0 0 1 -0.2,0.2 h -2.6 a 0.2,0.2 0 0 1 -0.2,-0.2 v -0.6 a 0.2,0.2 0 0 1 0.2,-0.2 h 0.6 a 0.2,0.2 0 0 0 0.2,-0.2 v -0.6 a 0.2,0.2 0 0 0 -0.2,-0.2 h -0.6 a 0.2,0.2 0 0 0 -0.2,0.2 v 0.6 a 0.2,0.2 0 0 1 -0.2,0.2 h -0.6 a 0.2,0.2 0 0 1 -0.2,-0.2 v -0.6 a 0.2,0.2 0 0 0 -0.2,-0.2 h -0.6 a 0.2,0.2 0 0 1 -0.2,-0.2 v -0.6 a 0.2,0.2 0 0 1 0.2,-0.2 h 2.6 a 0.2,0.2 0 0 0 0.2,-0.2 v -0.6 a 0.2,0.2 0 0 0 -0.2,-0.2 h -2.6 a 0.2,0.2 0 0 1 -0.2,-0.2 v -0.6 a 0.2,0.2 0 0 0 -0.2,-0.2 h -0.6 a 0.2,0.2 0 0 1 -0.2,-0.2 z m 10,1 a 0.2,0.2 0 0 1 0.2,-0.2 h 0.6 a 0.2,0.2 0 0 1 0.2,0.2 v 0.6 a 0.2,0.2 0 0 1 -0.2,0.2 h -0.6 a 0.2,0.2 0 0 1 -0.2,-0.2 z m -10,3 a 0.2,0.2 0 0 1 0.2,-0.2 h 0.6 a 0.2,0.2 0 0 1 0.2,0.2 v 1.6 a 0.2,0.2 0 0 0 0.2,0.2 h 1.6 a 0.2,0.2 0 0 1 0.2,0.2 v 0.6 a 0.2,0.2 0 0 1 -0.2,0.2 h -0.6 a 0.2,0.2 0 0 0 -0.2,0.2 v 0.6 a 0.2,0.2 0 0 1 -0.2,0.2 h -1.6 a 0.2,0.2 0 0 1 -0.2,-0.2 z m 7,2 a 0.2,0.2 0 0 1 0.2,-0.2 h 0.6 a 0.2,0.2 0 0 1 0.2,0.2 v 0.6 a 0.2,0.2 0 0 1 -0.2,0.2 h -0.6 a 0.2,0.2 0 0 1 -0.2,-0.2 z m -3,1 a 0.2,0.2 0 0 1 0.2,-0.2 h 0.6 a 0.2,0.2 0 0 1 0.2,0.2 v 0.6 a 0.2,0.2 0 0 1 -0.2,0.2 h -0.6 a 0.2,0.2 0 0 1 -0.2,-0.2 z m 2,0 a 0.2,0.2 0 0 1 0.2,-0.2 h 0.6 a 0.2,0.2 0 0 1 0.2,0.2 v 0.6 a 0.2,0.2 0 0 1 -0.2,0.2 h -0.6 a 0.2,0.2 0 0 1 -0.2,-0.2 z" />
  <path
     id="qr squares"
     d="m 4.787072,1.005257 h 4.9 a 1.05,1.05 0 0 1 1.05,1.05 v 4.9 a 1.05,1.05 0 0 1 -1.05,1.05 h -4.9 a 1.05,1.05 0 0 1 -1.05,-1.05 v -4.9 a 1.05,1.05 0 0 1 1.05,-1.05 z m 0.7,1 h 3.5 a 0.75,0.75 0 0 1 0.75,0.75 v 3.5 a 0.75,0.75 0 0 1 -0.75,0.75 h -3.5 a 0.75,0.75 0 0 1 -0.75,-0.75 v -3.5 a 0.75,0.75 0 0 1 0.75,-0.75 z m 1.75,1 v 0 a 1.5,1.5 0 0 1 1.5,1.5 v 0 a 1.5,1.5 0 0 1 -1.5,1.5 v 0 a 1.5,1.5 0 0 1 -1.5,-1.5 v 0 a 1.5,1.5 0 0 1 1.5,-1.5 z m 15.55,-2 h 4.9 a 1.05,1.05 0 0 1 1.05,1.05 v 4.9 a 1.05,1.05 0 0 1 -1.05,1.05 h -4.9 a 1.05,1.05 0 0 1 -1.05,-1.05 v -4.9 a 1.05,1.05 0 0 1 1.05,-1.05 z m 0.7,1 h 3.5 a 0.75,0.75 0 0 1 0.75,0.75 v 3.5 a 0.75,0.75 0 0 1 -0.75,0.75 h -3.5 a 0.75,0.75 0 0 1 -0.75,-0.75 v -3.5 a 0.75,0.75 0 0 1 0.75,-0.75 z m 1.75,1 v 0 a 1.5,1.5 0 0 1 1.5,1.5 v 0 a 1.5,1.5 0 0 1 -1.5,1.5 v 0 a 1.5,1.5 0 0 1 -1.5,-1.5 v 0 a 1.5,1.5 0 0 1 1.5,-1.5 z m -20.45,16 h 4.9 a 1.05,1.05 0 0 1 1.05,1.05 v 4.9 a 1.05,1.05 0 0 1 -1.05,1.05 h -4.9 a 1.05,1.05 0 0 1 -1.05,-1.05 v -4.9 a 1.05,1.05 0 0 1 1.05,-1.05 z m 0.7,1 h 3.5 a 0.75,0.75 0 0 1 0.75,0.75 v 3.5 a 0.75,0.75 0 0 1 -0.75,0.75 h -3.5 a 0.75,0.75 0 0 1 -0.75,-0.75 v -3.5 a 0.75,0.75 0 0 1 0.75,-0.75 z m 1.75,1 v 0 a 1.5,1.5 0 0 1 1.5,1.5 v 0 a 1.5,1.5 0 0 1 -1.5,1.5 v 0 a 1.5,1.5 0 0 1 -1.5,-1.5 v 0 a 1.5,1.5 0 0 1 1.5,-1.5 z"
     fill-rule="evenodd"
     fill-opacity="1"
     fill="#000000" />
  <path
     d="m 30.581438,15.014991 c -0.006,-0.01095 -0.01297,-0.02153 -0.02016,-0.03209 l 0.0012,-5.2e-4 c 0.01119,-0.0046 0.01521,-0.021 0.0087,-0.03656 -0.0064,-0.01554 -0.02077,-0.02435 -0.03206,-0.01965 l -0.0141,0.0058 c 0.01021,-0.0042 0.01313,-0.02022 0.0067,-0.03575 -0.0064,-0.01554 -0.01984,-0.02471 -0.03001,-0.02054 l -0.01708,0.0071 c 0.0087,-0.0036 0.0107,-0.01917 0.0042,-0.03471 -0.0066,-0.01554 -0.02898,-0.02097 -0.03775,-0.01736 l -0.0075,0.0032 c -0.0149,-0.02004 -0.02836,-0.04062 -0.04007,-0.062 -0.01586,-0.02865 -0.02798,-0.05883 -0.0392,-0.08932 -0.02232,-0.06112 -0.03727,-0.125311 -0.0484,-0.191121 -0.02696,-0.129604 -0.02888,-0.269547 -0.157074,-0.357253 -0.0017,-0.0056 -0.0034,-0.01119 -0.0048,-0.01697 l 0.01893,-0.0079 c 0.0093,-0.004 0.01167,-0.01959 0.0052,-0.03515 -0.0064,-0.01554 -0.01922,-0.02497 -0.02857,-0.0211 l 0.0096,-0.004 c 0.01009,-0.0042 0.01313,-0.02022 0.0066,-0.03567 -0.0064,-0.01555 -0.01984,-0.02476 -0.03001,-0.02055 l -0.01505,0.0062 c -10e-4,-0.002 -0.0017,-0.0044 -0.0029,-0.0064 -0.0059,-0.01155 -0.0051,-0.04103 -0.0091,-0.05966 0.04132,-0.03087 0.07731,-0.06726 0.107412,-0.107619 0.01859,0.004 0.04816,0.0031 0.05974,0.0093 0.002,0.001 0.0044,0.0019 0.0064,0.0027 l -0.0062,0.01505 c -0.0042,0.01021 0.005,0.02359 0.02051,0.03 0.01554,0.0064 0.03151,0.0034 0.03568,-0.0067 l 0.004,-0.0096 c -0.004,0.0093 0.0056,0.02215 0.0211,0.02858 0.01554,0.0064 0.03125,0.004 0.03512,-0.0054 l 0.0079,-0.01893 c 0.0056,0.0015 0.01155,0.0031 0.01699,0.0047 0.08769,0.128177 0.227651,0.130148 0.357252,0.157119 0.06578,0.01107 0.12994,0.02607 0.191077,0.0484 0.03057,0.01119 0.06068,0.02338 0.08932,0.03919 0.02136,0.01167 0.04202,0.02519 0.06204,0.04007 l -0.0032,0.0075 c -0.0036,0.0087 0.0017,0.03131 0.01733,0.03772 0.01554,0.0064 0.03107,0.0046 0.03469,-0.0042 l -0.0071,0.01709 c -0.0042,0.01009 0.005,0.02354 0.0206,0.03 0.01554,0.0064 0.03146,0.0034 0.03567,-0.0066 l -0.0059,0.0141 c -0.0046,0.01119 0.0042,0.02562 0.01965,0.0321 0.01554,0.0064 0.03193,0.0024 0.03663,-0.0087 l 5.19e-4,-0.0012 c 0.01058,0.0071 0.02118,0.01394 0.03206,0.02016 0.01489,0.0082 0.03009,0.0157 0.04514,0.02353 -0.161073,0.307284 -0.413651,0.568469 -0.738881,0.738678 -0.0079,-0.01505 -0.01537,-0.03012 -0.02346,-0.04504 z m -1.019904,-1.415535 c -0.05202,-0.125569 0.0075,-0.269568 0.133176,-0.321578 0.125616,-0.05202 0.269612,0.0075 0.321601,0.133239 0.05198,0.125552 -0.0075,0.269544 -0.133208,0.321579 -0.125584,0.05202 -0.269568,-0.0075 -0.321578,-0.13324 z m 1.903898,0.428261 c -0.01622,-0.0051 -0.03228,-0.01058 -0.04858,-0.01521 -0.01204,-0.0034 -0.02448,-0.0059 -0.03693,-0.0085 l 5.19e-4,-0.0012 c 0.0046,-0.01119 -0.0042,-0.02567 -0.01966,-0.03212 -0.01555,-0.0064 -0.03189,-0.0024 -0.0366,0.0087 l -0.0058,0.0141 c 0.0042,-0.01021 -0.005,-0.0236 -0.02052,-0.03001 -0.01554,-0.0064 -0.03149,-0.0034 -0.03569,0.0066 l -0.0071,0.01708 c 0.0036,-0.0087 -0.006,-0.0211 -0.02157,-0.0275 -0.01554,-0.0066 -0.03529,0.0056 -0.03893,0.01441 l -0.0031,0.0075 c -0.02466,-0.0036 -0.0488,-0.0086 -0.0722,-0.01554 -0.03139,-0.0091 -0.06133,-0.02173 -0.09086,-0.03538 -0.05901,-0.02751 -0.115,-0.06229 -0.169375,-0.100931 -0.110719,-0.07259 -0.211068,-0.170188 -0.363677,-0.141552 -0.0051,-0.0027 -0.01021,-0.0056 -0.01537,-0.0086 l 0.0079,-0.01894 c 0.004,-0.0093 -0.0056,-0.02213 -0.0211,-0.02855 -0.01554,-0.0064 -0.03122,-0.004 -0.03507,0.0052 l 0.004,-0.0096 c 0.0042,-0.01021 -0.005,-0.0236 -0.02051,-0.03004 -0.01554,-0.0064 -0.03152,-0.0034 -0.03573,0.0066 l -0.0062,0.01505 c -0.0022,-7.5e-4 -0.0044,-0.0019 -0.0066,-0.0026 -0.01249,-0.004 -0.03279,-0.02542 -0.04867,-0.03585 0.0071,-0.04981 0.0075,-0.100931 1.13e-4,-0.151995 0.01586,-0.01046 0.03618,-0.03178 0.04858,-0.03578 0.0022,-7.52e-4 0.0044,-0.0019 0.0067,-0.0024 l 0.0062,0.01505 c 0.0042,0.01021 0.02026,0.01313 0.03575,0.0066 0.01554,-0.0064 0.02475,-0.01984 0.02051,-0.03 l -0.004,-0.0096 c 0.004,0.0093 0.0196,0.01167 0.03512,0.0054 0.01554,-0.0064 0.02499,-0.01923 0.02111,-0.02855 l -0.0079,-0.01893 c 0.0051,-0.0031 0.01009,-0.0059 0.01537,-0.0086 0.152604,0.02864 0.252958,-0.06897 0.363653,-0.141536 0.05438,-0.03865 0.110355,-0.07344 0.169376,-0.100907 0.02951,-0.0136 0.05946,-0.02635 0.09088,-0.03543 0.02337,-0.007 0.04751,-0.01191 0.07217,-0.01554 l 0.0032,0.0075 c 0.0036,0.0087 0.02338,0.02083 0.03894,0.01441 0.01554,-0.0064 0.02517,-0.01878 0.02153,-0.0275 l 0.0071,0.01706 c 0.0042,0.01021 0.02022,0.01313 0.03575,0.0066 0.01554,-0.0064 0.02474,-0.01984 0.02049,-0.03 l 0.0059,0.0141 c 0.0046,0.01119 0.02105,0.01521 0.03657,0.0087 0.01555,-0.0064 0.02435,-0.02074 0.01967,-0.03206 l -4.98e-4,-0.0012 c 0.01249,-0.0024 0.02481,-0.005 0.03691,-0.0085 0.01631,-0.0046 0.03231,-0.01021 0.04842,-0.01521 0.109589,0.35031 0.103533,0.713601 1.57e-4,1.044828 z M 31.34366,12.689321 c -0.01489,0.0078 -0.03016,0.01521 -0.04497,0.02345 -0.01107,0.006 -0.0216,0.01297 -0.03212,0.02016 l -5.19e-4,-0.0012 c -0.0046,-0.01119 -0.02105,-0.01521 -0.03658,-0.0087 -0.01554,0.0064 -0.02435,0.02081 -0.01965,0.03211 l 0.0058,0.0141 c -0.0042,-0.01021 -0.0202,-0.01313 -0.03568,-0.0067 -0.01554,0.0066 -0.02475,0.01987 -0.02055,0.03004 l 0.0071,0.01706 c -0.0036,-0.0087 -0.01916,-0.01058 -0.03469,-0.0042 -0.01554,0.0064 -0.02093,0.029 -0.01733,0.03772 l 0.0031,0.0075 c -0.02004,0.01489 -0.04065,0.0284 -0.062,0.04007 -0.02867,0.01586 -0.0588,0.02805 -0.08936,0.03925 -0.06111,0.02229 -0.125312,0.03726 -0.191076,0.0484 -0.129621,0.02696 -0.269593,0.02886 -0.357253,0.157041 -0.0056,0.0019 -0.01119,0.0034 -0.01701,0.0047 l -0.0079,-0.01894 c -0.004,-0.0093 -0.01961,-0.01167 -0.03516,-0.0054 -0.01554,0.0064 -0.02497,0.0192 -0.0211,0.02855 l -0.004,-0.0096 c -0.0042,-0.01021 -0.02026,-0.01313 -0.03575,-0.0066 -0.01554,0.0064 -0.02475,0.01984 -0.02054,0.03 l 0.0062,0.01505 c -0.002,10e-4 -0.0044,0.0019 -0.0064,0.0027 -0.01155,0.0059 -0.04103,0.0051 -0.05971,0.0091 -0.03087,-0.04132 -0.06722,-0.07729 -0.107497,-0.107436 0.0039,-0.01859 0.0032,-0.04816 0.0091,-0.05979 0.001,-0.002 0.0017,-0.0044 0.0027,-0.0064 l 0.01505,0.0062 c 0.01009,0.0042 0.02358,-0.005 0.03,-0.02054 0.0064,-0.01554 0.0035,-0.03152 -0.0066,-0.03575 l -0.0096,-0.004 c 0.0093,0.004 0.02211,-0.0056 0.02853,-0.0211 0.0066,-0.01554 0.004,-0.03126 -0.0052,-0.03516 l -0.01894,-0.0078 c 0.0015,-0.0056 0.0032,-0.01131 0.0048,-0.01699 0.128178,-0.08768 0.130101,-0.22763 0.157088,-0.35723 0.01107,-0.06577 0.02608,-0.129972 0.04839,-0.191099 0.01119,-0.03056 0.02338,-0.06072 0.03923,-0.08932 0.01167,-0.02138 0.02519,-0.04198 0.0401,-0.06202 l 0.0075,0.0032 c 0.0087,0.0036 0.03127,-0.0019 0.03772,-0.01736 0.0064,-0.01554 0.0045,-0.03106 -0.0042,-0.03468 l 0.01709,0.0071 c 0.01009,0.0042 0.02359,-0.005 0.03,-0.02051 0.0064,-0.01554 0.0034,-0.03152 -0.0066,-0.03571 l 0.0141,0.0058 c 0.01143,0.0046 0.02569,-0.004 0.03213,-0.01965 0.0064,-0.01554 0.0024,-0.03191 -0.0087,-0.0366 l -0.0012,-5.18e-4 c 0.0071,-0.01046 0.01394,-0.02113 0.02015,-0.03206 0.0082,-0.01489 0.0157,-0.0301 0.02354,-0.04511 0.307337,0.161082 0.568498,0.413658 0.738685,0.73889 z m -1.032277,-0.860535 c -0.0051,0.01618 -0.01058,0.03222 -0.01537,0.04855 -0.0034,0.01204 -0.0059,0.02444 -0.0085,0.03693 l -0.0012,-4.96e-4 c -0.01119,-0.0046 -0.02569,0.004 -0.03212,0.01965 -0.0064,0.01554 -0.0024,0.03189 0.0087,0.0366 l 0.0141,0.0058 c -0.01021,-0.0042 -0.0236,0.005 -0.03,0.02051 -0.0064,0.01554 -0.0034,0.03151 0.0066,0.03571 l 0.01706,0.0071 c -0.0087,-0.0036 -0.02106,0.0059 -0.0275,0.02157 -0.0064,0.01554 0.0058,0.0353 0.01441,0.03893 l 0.0075,0.0032 c -0.0036,0.02466 -0.0086,0.0488 -0.01553,0.07217 -0.0091,0.03146 -0.02178,0.06139 -0.03546,0.09093 -0.02743,0.05897 -0.06223,0.114951 -0.100883,0.169328 -0.0726,0.110708 -0.170186,0.211022 -0.141552,0.363653 -0.0026,0.0054 -0.0056,0.01021 -0.0086,0.01537 l -0.01896,-0.0078 c -0.0093,-0.004 -0.02211,0.0056 -0.02853,0.0211 -0.0064,0.01554 -0.004,0.03126 0.0052,0.03512 l -0.0096,-0.004 c -0.01021,-0.0042 -0.02354,0.005 -0.02996,0.02054 -0.0066,0.01554 -0.0035,0.03151 0.0066,0.03571 l 0.01505,0.0062 c -8.19e-4,0.002 -0.0017,0.0044 -0.0026,0.0066 -0.004,0.01233 -0.02541,0.03272 -0.03581,0.04864 -0.04982,-0.0072 -0.100931,-0.0075 -0.152028,-6.7e-5 -0.01046,-0.01586 -0.03178,-0.03621 -0.03577,-0.0486 -7.51e-4,-0.002 -0.0017,-0.0044 -0.0026,-0.0066 l 0.01505,-0.0062 c 0.01021,-0.0042 0.01313,-0.02022 0.0067,-0.03575 -0.0064,-0.01554 -0.01984,-0.02471 -0.03001,-0.02051 l -0.0096,0.004 c 0.0093,-0.004 0.01167,-0.01961 0.0052,-0.03512 -0.0064,-0.01554 -0.0192,-0.02499 -0.02858,-0.02114 l -0.01893,0.0078 c -0.0032,-0.0051 -0.0059,-0.01021 -0.0086,-0.01537 0.02863,-0.152636 -0.06898,-0.25298 -0.141568,-0.363696 -0.03862,-0.05436 -0.07342,-0.110343 -0.100907,-0.169333 -0.01362,-0.02951 -0.02637,-0.05947 -0.03543,-0.09091 -0.007,-0.02337 -0.01179,-0.04751 -0.01554,-0.07217 l 0.0075,-0.0031 c 0.0087,-0.0036 0.02083,-0.02338 0.01441,-0.03892 -0.0064,-0.01554 -0.01875,-0.02519 -0.0275,-0.02157 l 0.01706,-0.0071 c 0.01021,-0.0041 0.01313,-0.0202 0.0066,-0.03571 -0.0064,-0.01554 -0.01984,-0.02471 -0.03,-0.0205 l 0.0141,-0.0059 c 0.01119,-0.0046 0.01521,-0.02105 0.0087,-0.0366 -0.0064,-0.01554 -0.02081,-0.02431 -0.0321,-0.01961 l -0.0012,5.2e-4 c -0.0024,-0.01249 -0.005,-0.02488 -0.0085,-0.03697 -0.0048,-0.01631 -0.01009,-0.03228 -0.01521,-0.04842 0.350333,-0.109613 0.713606,-0.103545 1.044851,-1.36e-4 z m -1.338441,0.121756 c 0.0079,0.01505 0.01537,0.03016 0.02346,0.04502 0.006,0.01095 0.01297,0.02153 0.02015,0.03206 l -0.0012,5.18e-4 c -0.01119,0.0046 -0.01521,0.02105 -0.0087,0.03658 0.0064,0.01554 0.02081,0.02435 0.03211,0.01965 l 0.0141,-0.0058 c -0.01009,0.0042 -0.01313,0.0202 -0.0066,0.03569 0.0064,0.01554 0.01984,0.02471 0.03,0.02054 l 0.01709,-0.0071 c -0.0087,0.0036 -0.01058,0.01916 -0.0042,0.03469 0.0064,0.01554 0.02894,0.02094 0.0377,0.01728 l 0.0075,-0.0031 c 0.01489,0.02005 0.02837,0.0407 0.04007,0.06207 0.01586,0.02863 0.02801,0.05876 0.03923,0.08931 0.02228,0.06117 0.03727,0.125344 0.04835,0.191123 0.02701,0.129604 0.02891,0.269545 0.157089,0.357252 0.0017,0.0056 0.0034,0.01119 0.0048,0.01699 l -0.01893,0.0079 c -0.0093,0.004 -0.01167,0.0196 -0.0052,0.03512 0.0064,0.01554 0.01922,0.02499 0.02858,0.02111 l -0.0096,0.004 c -0.01021,0.0042 -0.01313,0.02016 -0.0067,0.03568 0.0064,0.01554 0.01984,0.02471 0.03001,0.02055 l 0.01505,-0.0062 c 9.29e-4,0.002 0.0017,0.0044 0.0027,0.0064 0.0059,0.01155 0.0051,0.04102 0.0091,0.05965 -0.04133,0.03087 -0.07729,0.06726 -0.107436,0.107534 -0.01859,-0.004 -0.04817,-0.0032 -0.05974,-0.0091 -0.002,-0.001 -0.0044,-0.0019 -0.0064,-0.0029 l 0.0062,-0.01505 c 0.0042,-0.01009 -0.005,-0.02358 -0.0205,-0.03 -0.01554,-0.0064 -0.03151,-0.0034 -0.03575,0.0067 l -0.004,0.0096 c 0.004,-0.0093 -0.0056,-0.02216 -0.02111,-0.02855 -0.01554,-0.0064 -0.03126,-0.004 -0.03512,0.0054 l -0.0079,0.01893 c -0.0056,-0.0015 -0.01155,-0.0031 -0.01702,-0.0048 -0.08768,-0.128212 -0.227615,-0.130133 -0.357238,-0.157089 -0.06578,-0.01107 -0.129973,-0.02609 -0.191099,-0.0484 -0.03055,-0.01119 -0.06068,-0.02338 -0.08931,-0.03923 -0.02136,-0.01167 -0.04202,-0.02519 -0.06202,-0.04007 l 0.0032,-0.0075 c 0.0036,-0.0087 -0.0017,-0.03127 -0.01736,-0.03772 -0.01555,-0.0064 -0.03106,-0.0045 -0.03469,0.0042 l 0.0071,-0.01709 c 0.0042,-0.01021 -0.005,-0.02354 -0.02053,-0.03 -0.01554,-0.0064 -0.03152,-0.0034 -0.03571,0.0066 l 0.0058,-0.0141 c 0.0046,-0.01119 -0.004,-0.02567 -0.01965,-0.03212 -0.01554,-0.0064 -0.03191,-0.0024 -0.0366,0.0087 l -5.18e-4,0.0012 c -0.01058,-0.0071 -0.02112,-0.01394 -0.03206,-0.02016 -0.01489,-0.0082 -0.0301,-0.0157 -0.04514,-0.0235 0.161084,-0.307369 0.413682,-0.568508 0.738867,-0.738696 z m -0.86049,1.032328 c 0.01618,0.005 0.03226,0.01058 0.04856,0.01521 0.01203,0.0034 0.02444,0.0059 0.03693,0.0085 l -5.18e-4,0.0012 c -0.0046,0.01119 0.004,0.02566 0.01965,0.03209 0.01554,0.0064 0.03193,0.0026 0.0366,-0.0087 l 0.0058,-0.0141 c -0.0042,0.01021 0.005,0.0236 0.02054,0.03 0.01554,0.0064 0.03152,0.0035 0.03568,-0.0066 l 0.0071,-0.01706 c -0.0036,0.0087 0.0059,0.02105 0.02156,0.02749 0.01554,0.0064 0.03531,-0.0056 0.03893,-0.01441 l 0.0032,-0.0075 c 0.02468,0.0036 0.04879,0.0086 0.07217,0.01554 0.03142,0.0091 0.06134,0.02177 0.09091,0.0354 0.05899,0.02747 0.114964,0.06229 0.169356,0.10093 0.110708,0.07247 0.211019,0.170083 0.363674,0.141441 0.0051,0.0025 0.01021,0.0056 0.01537,0.0086 l -0.0079,0.01894 c -0.0039,0.0093 0.0056,0.02214 0.02111,0.02858 0.01554,0.0064 0.03126,0.004 0.03512,-0.0054 l -0.004,0.0096 c -0.0042,0.01021 0.005,0.02354 0.02054,0.02997 0.01553,0.0064 0.03151,0.0035 0.03571,-0.0066 l 0.0062,-0.01505 c 0.002,8.18e-4 0.0044,0.0019 0.0066,0.0026 0.01249,0.004 0.03279,0.02542 0.04866,0.03585 -0.0071,0.04978 -0.0075,0.100907 -1.14e-4,0.151995 -0.01586,0.01046 -0.03618,0.03179 -0.04855,0.0358 -0.0022,7.52e-4 -0.0044,0.0019 -0.0066,0.0024 l -0.0062,-0.01505 c -0.0042,-0.01021 -0.0202,-0.01313 -0.03571,-0.0066 -0.01554,0.0064 -0.0247,0.01984 -0.02049,0.03001 l 0.004,0.0096 c -0.0039,-0.0093 -0.01959,-0.01167 -0.03509,-0.0054 -0.01554,0.0064 -0.02502,0.01924 -0.02114,0.02858 l 0.0079,0.01893 c -0.0051,0.0031 -0.01009,0.0059 -0.01537,0.0086 -0.152653,-0.02864 -0.252981,0.06897 -0.3637,0.141569 -0.05436,0.03861 -0.110306,0.07344 -0.169328,0.100905 -0.02955,0.01361 -0.05947,0.02635 -0.09091,0.0354 -0.02337,0.007 -0.04752,0.01191 -0.07217,0.01554 l -0.0032,-0.0075 c -0.0036,-0.0086 -0.02342,-0.02083 -0.03892,-0.01441 -0.01554,0.0064 -0.02517,0.01875 -0.0216,0.02745 l -0.0071,-0.01704 c -0.0042,-0.01021 -0.0202,-0.01313 -0.03576,-0.0066 -0.01554,0.0064 -0.02466,0.01984 -0.02046,0.03 l -0.0059,-0.0141 c -0.0046,-0.01119 -0.02108,-0.01521 -0.03658,-0.0087 -0.01554,0.0064 -0.02435,0.02077 -0.01965,0.03206 l 4.95e-4,0.0012 c -0.01249,0.0024 -0.02486,0.005 -0.03693,0.0085 -0.01628,0.0046 -0.03228,0.01021 -0.04842,0.01521 -0.109614,-0.350335 -0.103558,-0.713582 -1.43e-4,-1.044807 z m 0.121739,1.338374 c 0.01505,-0.0079 0.03016,-0.01521 0.04502,-0.02346 0.01107,-0.006 0.02157,-0.01297 0.03209,-0.02016 l 5.18e-4,0.0012 c 0.0046,0.01119 0.02102,0.01521 0.03658,0.0087 0.01555,-0.0066 0.02435,-0.02077 0.01965,-0.03212 l -0.0058,-0.0141 c 0.0042,0.01021 0.02021,0.01313 0.03571,0.0066 0.01554,-0.0066 0.02475,-0.01984 0.02051,-0.03001 l -0.0071,-0.01706 c 0.0036,0.0086 0.01916,0.01058 0.03471,0.0042 0.01554,-0.0064 0.02093,-0.029 0.0173,-0.03775 l -0.0032,-0.0075 c 0.02002,-0.01489 0.04062,-0.02839 0.06202,-0.04007 0.02863,-0.01586 0.05876,-0.02798 0.08932,-0.03923 0.06113,-0.02229 0.125312,-0.03726 0.191076,-0.04835 0.129619,-0.02698 0.269569,-0.02891 0.357252,-0.157088 0.0056,-0.0019 0.01119,-0.0034 0.01702,-0.0047 l 0.0079,0.01893 c 0.0039,0.0093 0.0196,0.01167 0.03512,0.0052 0.01554,-0.0064 0.02499,-0.01924 0.02111,-0.02858 l 0.004,0.0096 c 0.0042,0.01021 0.0202,0.01313 0.03567,0.0066 0.01555,-0.0064 0.02471,-0.01984 0.02054,-0.03 l -0.0062,-0.01505 c 0.002,-0.001 0.0044,-0.0019 0.0064,-0.0029 0.01155,-0.0059 0.04101,-0.0051 0.05963,-0.0091 0.03091,0.04132 0.06727,0.07728 0.10757,0.107376 -0.004,0.01861 -0.0032,0.04816 -0.0091,0.05979 -10e-4,0.002 -0.0017,0.0044 -0.0027,0.0064 l -0.01505,-0.0062 c -0.01021,-0.0042 -0.0236,0.005 -0.03,0.02054 -0.0064,0.01554 -0.0034,0.03151 0.0066,0.03571 l 0.0096,0.004 c -0.0093,-0.004 -0.02215,0.0056 -0.02855,0.02114 -0.0064,0.01554 -0.004,0.03122 0.0052,0.03512 l 0.01893,0.0078 c -0.0015,0.0056 -0.0031,0.01155 -0.0048,0.01699 -0.128179,0.0877 -0.130117,0.227631 -0.157087,0.357253 -0.01107,0.06576 -0.02607,0.12994 -0.04835,0.1911 -0.01119,0.03056 -0.02342,0.06069 -0.03923,0.08932 -0.01167,0.02136 -0.02519,0.04198 -0.04007,0.06202 l -0.0075,-0.0032 c -0.0087,-0.0036 -0.0313,0.0017 -0.03772,0.01734 -0.0064,0.01554 -0.0045,0.0311 0.0042,0.03473 l -0.01711,-0.0071 c -0.01021,-0.0042 -0.02353,0.005 -0.02996,0.02054 -0.0066,0.01554 -0.0035,0.03151 0.0066,0.03568 l -0.0141,-0.0058 c -0.01119,-0.0046 -0.02565,0.0042 -0.0321,0.01965 -0.0064,0.01554 -0.0024,0.03191 0.0087,0.0366 l 0.0012,5.17e-4 c -0.0071,0.01058 -0.01394,0.02118 -0.02015,0.03206 -0.0082,0.01489 -0.0157,0.03008 -0.02353,0.04514 -0.30739,-0.161058 -0.56855,-0.413658 -0.738761,-0.738865 z m 1.032322,0.860512 c 0.0051,-0.01615 0.01046,-0.03226 0.01521,-0.04855 0.0034,-0.01204 0.0059,-0.02448 0.0085,-0.03697 l 0.0012,5.17e-4 c 0.01119,0.0046 0.02567,-0.004 0.03209,-0.01967 0.0064,-0.01554 0.0024,-0.03189 -0.0087,-0.0366 l -0.0141,-0.0058 c 0.01021,0.0042 0.02358,-0.005 0.03,-0.02053 0.0064,-0.01554 0.0035,-0.03151 -0.0067,-0.03569 l -0.01709,-0.0071 c 0.0087,0.0036 0.02108,-0.0059 0.02752,-0.02157 0.0064,-0.01554 -0.0056,-0.03527 -0.01441,-0.03893 l -0.0075,-0.0032 c 0.0036,-0.02466 0.0086,-0.04879 0.01552,-0.07217 0.0091,-0.03142 0.02178,-0.06134 0.03543,-0.09089 0.02745,-0.05903 0.06227,-0.114977 0.100931,-0.169377 0.07255,-0.110708 0.170164,-0.211042 0.141521,-0.363698 0.0027,-0.0051 0.0056,-0.01022 0.0086,-0.01537 l 0.01893,0.0079 c 0.0093,0.004 0.02216,-0.0056 0.02859,-0.0211 0.0064,-0.01554 0.004,-0.03128 -0.0052,-0.03519 l 0.0096,0.004 c 0.01022,0.0042 0.02354,-0.005 0.03,-0.02054 0.0064,-0.01554 0.0034,-0.03151 -0.0066,-0.03571 l -0.01505,-0.0062 c 8.18e-4,-0.002 0.0017,-0.0044 0.0026,-0.0066 0.004,-0.01249 0.0254,-0.03279 0.03581,-0.04868 0.0498,0.0072 0.100931,0.0075 0.152028,9.1e-5 0.01046,0.01586 0.03177,0.03618 0.03575,0.0486 7.52e-4,0.002 0.0017,0.0044 0.0024,0.0066 l -0.01505,0.0062 c -0.01009,0.0042 -0.01313,0.02021 -0.0066,0.03575 0.0064,0.01554 0.01984,0.0247 0.03,0.02046 l 0.0096,-0.004 c -0.0093,0.0039 -0.01167,0.01961 -0.0052,0.03512 0.0064,0.01554 0.01918,0.02499 0.02855,0.02111 l 0.01893,-0.0078 c 0.0032,0.005 0.0059,0.01021 0.0085,0.01537 -0.02863,0.15265 0.06898,0.252982 0.141568,0.363698 0.03865,0.05438 0.07346,0.110355 0.100907,0.16933 0.01362,0.02951 0.02638,0.05947 0.0354,0.09093 0.007,0.02334 0.01179,0.04746 0.01554,0.07217 l -0.0075,0.0031 c -0.0087,0.0036 -0.0209,0.02338 -0.01441,0.03894 0.0064,0.01554 0.01875,0.02519 0.02752,0.02153 l -0.01711,0.0071 c -0.01022,0.0042 -0.01313,0.0202 -0.0067,0.03575 0.0064,0.01554 0.01984,0.02471 0.03001,0.0205 l -0.01409,0.0059 c -0.01119,0.0046 -0.01521,0.02108 -0.0087,0.03658 0.0066,0.01554 0.02081,0.02435 0.03212,0.01965 l 0.0012,-5.42e-4 c 0.0024,0.01249 0.005,0.02488 0.0085,0.03693 0.0046,0.0163 0.01022,0.03231 0.01521,0.04842 -0.350288,0.109637 -0.713579,0.103544 -1.044805,1.57e-4 z m 1.88506,1.497472 c 0.01606,-0.02428 0.02557,-0.04583 0.03203,-0.06611 0.007,-0.02051 0.01022,-0.03946 0.01155,-0.05753 0.0013,-0.01816 4.4e-5,-0.0352 -0.0029,-0.05166 -0.0024,-0.01659 -0.0051,-0.03299 -0.0085,-0.04929 -0.01233,-0.06528 -0.0339,-0.126704 -0.06123,-0.185758 -0.02777,-0.05889 -0.05405,-0.118381 -0.08693,-0.175143 -0.03233,-0.05697 -0.07024,-0.11168 -0.106306,-0.167148 -0.05292,-0.08393 -0.106183,-0.167641 -0.127826,-0.264518 l 0.02216,-0.0093 c 0.01021,-0.0042 0.01313,-0.02022 0.0067,-0.03573 -0.0066,-0.01554 -0.01987,-0.02471 -0.03001,-0.02051 l 0.0141,-0.0058 c 0.01119,-0.0046 0.01521,-0.0211 0.0087,-0.0366 -0.0064,-0.01554 -0.02075,-0.02435 -0.03206,-0.01967 l -0.0029,0.0011 c -0.004,-0.0245 -0.01095,-0.0479 -0.01894,-0.07075 l -0.0085,-0.02572 c 0.429559,-0.215199 0.759386,-0.557847 0.962318,-0.962086 l 0.02569,0.0085 c 0.02287,0.0082 0.04627,0.01474 0.07075,0.0189 l -0.0011,0.0029 c -0.0046,0.01119 0.004,0.02567 0.01965,0.03212 0.01554,0.0064 0.03196,0.0024 0.03662,-0.0087 l 0.0059,-0.0141 c -0.0042,0.01022 0.005,0.02354 0.02046,0.03004 0.01554,0.0064 0.03152,0.0034 0.03568,-0.0067 l 0.0093,-0.02217 c 0.09689,0.02163 0.180619,0.07495 0.264543,0.127858 0.05542,0.03602 0.110173,0.0739 0.167098,0.106306 0.05681,0.03288 0.116278,0.05913 0.175236,0.08689 0.05899,0.02729 0.120412,0.04898 0.185736,0.06123 0.01625,0.0032 0.03268,0.0059 0.04926,0.0085 0.01641,0.0031 0.03347,0.0042 0.05161,0.0029 0.01817,-0.0012 0.03712,-0.0045 0.05758,-0.01155 0.02026,-0.0066 0.04181,-0.01602 0.06607,-0.03203 0.02607,-0.01733 0.0405,-0.04929 0.03389,-0.08183 -0.0058,-0.02853 -0.01425,-0.05049 -0.02409,-0.06938 -0.0095,-0.01949 -0.0206,-0.03516 -0.03254,-0.04885 -0.01179,-0.01378 -0.02488,-0.02491 -0.03844,-0.03452 -0.01362,-0.01009 -0.02707,-0.01965 -0.04085,-0.02886 -0.05489,-0.03748 -0.113638,-0.06559 -0.174682,-0.08804 -0.06129,-0.02204 -0.121932,-0.04556 -0.185331,-0.06243 -0.06317,-0.01739 -0.128675,-0.02926 -0.19333,-0.043 -0.09677,-0.0219 -0.19367,-0.04344 -0.277478,-0.09667 l 0.0093,-0.02215 c 0.0042,-0.01009 -0.005,-0.02356 -0.02053,-0.03 -0.01554,-0.0064 -0.03152,-0.0035 -0.03569,0.0066 l 0.0058,-0.0141 c 0.0046,-0.01119 -0.004,-0.02567 -0.01967,-0.0321 -0.01554,-0.0064 -0.03189,-0.0024 -0.0366,0.0087 l -0.0011,0.0029 c -0.02023,-0.01441 -0.04157,-0.02618 -0.06343,-0.03666 l -0.02425,-0.01203 c 0.142338,-0.429344 0.151387,-0.904862 -2.3e-5,-1.36064 l 0.02426,-0.01203 c 0.02183,-0.01046 0.04318,-0.02226 0.0634,-0.03662 l 0.0011,0.0027 c 0.0046,0.01119 0.02105,0.01521 0.0366,0.0087 0.01554,-0.0064 0.02435,-0.02077 0.01965,-0.03209 l -0.0058,-0.0141 c 0.0042,0.01021 0.02016,0.01313 0.03571,0.0067 0.01554,-0.0064 0.0247,-0.01984 0.02049,-0.03 l -0.0093,-0.02215 c 0.08381,-0.05324 0.180687,-0.07474 0.277453,-0.09667 0.0647,-0.01378 0.130149,-0.02562 0.193331,-0.04298 0.06337,-0.01689 0.12408,-0.04037 0.185309,-0.06239 0.06105,-0.02247 0.119804,-0.05052 0.174649,-0.08808 0.01378,-0.0093 0.02737,-0.01889 0.04087,-0.02886 0.0136,-0.0096 0.02656,-0.02074 0.03849,-0.0345 0.01203,-0.01378 0.02303,-0.02938 0.03254,-0.04884 0.0097,-0.01889 0.01826,-0.04089 0.02408,-0.06936 0.006,-0.03072 -0.0062,-0.06351 -0.03389,-0.08183 -0.02425,-0.01606 -0.04583,-0.0256 -0.06607,-0.03205 -0.02052,-0.0071 -0.03945,-0.01021 -0.05758,-0.01155 -0.01812,-0.0012 -0.03519,-4.7e-5 -0.05161,0.0029 -0.01657,0.0024 -0.03299,0.0054 -0.04926,0.0085 -0.06536,0.01233 -0.126736,0.03393 -0.18578,0.06123 -0.0589,0.02775 -0.118381,0.05404 -0.175189,0.08692 -0.05696,0.03238 -0.111632,0.07027 -0.1671,0.106318 -0.0839,0.05288 -0.167641,0.106172 -0.264541,0.127794 l -0.0093,-0.02216 c -0.0042,-0.01021 -0.02021,-0.01313 -0.03571,-0.0066 -0.01554,0.0064 -0.02474,0.01984 -0.02051,0.03 l -0.0059,-0.0141 c -0.0046,-0.01119 -0.0211,-0.01521 -0.03658,-0.0087 -0.01554,0.0064 -0.02436,0.02082 -0.01967,0.03213 l 0.0011,0.0027 c -0.02448,0.0042 -0.04789,0.01095 -0.0708,0.01894 l -0.02569,0.0085 c -0.21518,-0.429333 -0.557852,-0.759183 -0.962091,-0.962114 l 0.0085,-0.02569 c 0.008,-0.02286 0.01474,-0.04627 0.01896,-0.07075 l 0.0027,0.0011 c 0.01119,0.0046 0.02562,-0.004 0.03206,-0.01967 0.0066,-0.01554 0.0024,-0.03191 -0.0087,-0.0366 l -0.0141,-0.0057 c 0.01009,0.0041 0.02357,-0.005 0.03,-0.02054 0.0064,-0.01554 0.0034,-0.03151 -0.0066,-0.03573 l -0.02219,-0.0092 c 0.02161,-0.09688 0.07495,-0.18062 0.127842,-0.264521 0.03602,-0.05543 0.07393,-0.110159 0.106282,-0.167121 0.03289,-0.05676 0.05916,-0.116265 0.08693,-0.175166 0.02731,-0.05907 0.04895,-0.120473 0.06117,-0.185761 0.0032,-0.01627 0.006,-0.03272 0.0085,-0.0493 0.0029,-0.01638 0.004,-0.03346 0.0027,-0.05161 -0.0012,-0.01812 -0.0045,-0.03704 -0.01155,-0.05756 -0.0066,-0.02029 -0.01602,-0.0418 -0.03203,-0.06607 -0.01736,-0.02605 -0.04929,-0.0405 -0.08183,-0.03387 -0.02849,0.0058 -0.05046,0.01425 -0.06939,0.02402 -0.01944,0.0094 -0.03512,0.02064 -0.04884,0.03255 -0.01378,0.01186 -0.02491,0.02488 -0.03445,0.03854 -0.01009,0.01345 -0.01969,0.02707 -0.02888,0.04081 -0.03752,0.05487 -0.0656,0.113604 -0.08807,0.174673 -0.02199,0.06128 -0.04549,0.121916 -0.06239,0.185307 -0.01739,0.06317 -0.0293,0.128643 -0.043,0.193353 -0.02191,0.09667 -0.04344,0.193594 -0.09667,0.277359 l -0.02213,-0.0092 c -0.01021,-0.0041 -0.02356,0.005 -0.03,0.0205 -0.0064,0.01554 -0.0034,0.03155 0.0067,0.03575 l -0.0141,-0.0057 c -0.01119,-0.0046 -0.02569,0.004 -0.03212,0.01967 -0.0064,0.01554 -0.0024,0.03189 0.0087,0.0366 l 0.0029,0.0011 c -0.01441,0.02023 -0.02619,0.04156 -0.03664,0.06345 l -0.01203,0.02423 c -0.429368,-0.142353 -0.904885,-0.151435 -1.360662,0 l -0.01203,-0.02426 c -0.01046,-0.02187 -0.02219,-0.04314 -0.0366,-0.06343 l 0.0029,-0.0012 c 0.01119,-0.0046 0.01521,-0.02105 0.0087,-0.0366 -0.0064,-0.01554 -0.02079,-0.02431 -0.0321,-0.01963 l -0.0141,0.0058 c 0.01021,-0.0042 0.01313,-0.02022 0.0066,-0.03573 -0.0064,-0.01554 -0.01984,-0.02471 -0.03001,-0.02054 l -0.02213,0.0092 c -0.05325,-0.08378 -0.07474,-0.18071 -0.09671,-0.277456 -0.01362,-0.0647 -0.02557,-0.130117 -0.043,-0.193331 -0.01692,-0.06339 -0.04037,-0.12403 -0.06241,-0.185307 -0.02242,-0.06111 -0.05058,-0.119804 -0.08807,-0.174672 -0.0093,-0.01377 -0.01887,-0.02737 -0.02886,-0.04083 -0.0096,-0.01361 -0.02073,-0.02658 -0.03449,-0.03847 -0.01378,-0.01186 -0.02935,-0.02305 -0.04884,-0.03257 -0.01891,-0.0098 -0.04087,-0.01825 -0.06935,-0.02404 -0.03074,-0.0062 -0.0635,0.0062 -0.08183,0.03389 -0.01606,0.02426 -0.0256,0.04579 -0.03206,0.06607 -0.0071,0.02053 -0.01021,0.03945 -0.01155,0.05756 -0.0013,0.01814 -4.5e-5,0.03522 0.0029,0.0516 0.0024,0.01657 0.0052,0.03304 0.0085,0.04929 0.01217,0.0653 0.03394,0.126705 0.06121,0.185781 0.02776,0.05889 0.05402,0.118393 0.08689,0.175191 0.03241,0.05697 0.0703,0.111667 0.106355,0.167075 0.05288,0.08393 0.106183,0.167685 0.127793,0.264543 l -0.02215,0.0092 c -0.01022,0.0041 -0.01313,0.02021 -0.0066,0.03575 0.0064,0.01554 0.01984,0.02471 0.03,0.0205 l -0.0141,0.0057 c -0.01119,0.0046 -0.01521,0.02105 -0.0087,0.03657 0.0064,0.01554 0.02079,0.02435 0.0321,0.01965 l 0.0029,-0.0011 c 0.0042,0.0245 0.01095,0.0479 0.01896,0.07078 l 0.0085,0.02567 c -0.429384,0.21521 -0.759211,0.557881 -0.96212,0.962119 l -0.0257,-0.0085 c -0.02283,-0.0082 -0.04627,-0.01474 -0.07075,-0.01894 l 0.0011,-0.0029 c 0.0046,-0.01119 -0.004,-0.02569 -0.01966,-0.03212 -0.01554,-0.0064 -0.03191,-0.0024 -0.0366,0.0087 l -0.0058,0.0141 c 0.0042,-0.01021 -0.005,-0.0236 -0.0205,-0.03001 -0.01554,-0.0064 -0.03152,-0.0034 -0.03575,0.0067 l -0.0093,0.02215 c -0.09675,-0.02154 -0.180485,-0.07488 -0.264385,-0.127767 -0.05543,-0.03606 -0.110161,-0.0739 -0.167124,-0.106306 -0.05676,-0.03288 -0.116265,-0.05916 -0.175167,-0.08692 -0.05904,-0.02729 -0.120472,-0.04894 -0.185779,-0.06123 -0.01627,-0.0032 -0.03268,-0.0059 -0.04926,-0.0085 -0.01642,-0.0029 -0.03349,-0.0042 -0.05163,-0.0029 -0.0181,0.0013 -0.03704,0.0045 -0.05757,0.01155 -0.02027,0.0066 -0.0418,0.01602 -0.06607,0.03206 -0.02606,0.01729 -0.04051,0.04926 -0.03389,0.08183 0.0057,0.02849 0.01425,0.05045 0.02405,0.06938 0.0095,0.01949 0.02066,0.03512 0.03256,0.04883 0.01179,0.01378 0.02487,0.02491 0.0385,0.03451 0.01345,0.01009 0.02703,0.01965 0.04082,0.02886 0.05484,0.03749 0.113615,0.0656 0.174683,0.08807 0.06127,0.02203 0.121917,0.04552 0.185307,0.06239 0.06317,0.01736 0.128642,0.0293 0.193331,0.04298 0.09677,0.02192 0.193667,0.04344 0.277432,0.09667 l -0.0093,0.02213 c -0.0042,0.01021 0.005,0.0236 0.02054,0.03002 0.01554,0.0064 0.03151,0.0034 0.03568,-0.0067 l -0.0058,0.0141 c -0.0046,0.01119 0.004,0.02567 0.01967,0.03209 0.01554,0.0064 0.03191,0.0024 0.03662,-0.0087 l 0.0011,-0.0029 c 0.02023,0.01441 0.04156,0.02619 0.06343,0.03662 l 0.02421,0.01203 c -0.142337,0.429343 -0.151418,0.904886 2.2e-5,1.360641 l -0.02424,0.01203 c -0.02189,0.01046 -0.0432,0.02224 -0.06343,0.03662 l -0.0012,-0.0029 c -0.0046,-0.01119 -0.02107,-0.01521 -0.0366,-0.0087 -0.01554,0.0064 -0.02435,0.02074 -0.01967,0.03206 l 0.0058,0.0141 c -0.0042,-0.01009 -0.02021,-0.01313 -0.03573,-0.0066 -0.01554,0.0064 -0.02475,0.01984 -0.02054,0.03 l 0.0093,0.02213 c -0.08378,0.0532 -0.180666,0.07478 -0.277434,0.09664 -0.06467,0.01378 -0.130165,0.02565 -0.193329,0.043 -0.06339,0.01693 -0.124047,0.04041 -0.185333,0.06243 -0.06104,0.02246 -0.119792,0.0506 -0.174651,0.08807 -0.01378,0.0093 -0.02736,0.01889 -0.04085,0.02886 -0.01362,0.0096 -0.02656,0.02077 -0.0385,0.0345 -0.01179,0.0136 -0.02302,0.02934 -0.03256,0.04886 -0.0097,0.01887 -0.01824,0.04082 -0.02403,0.06935 -0.0062,0.03067 0.0062,0.06349 0.03389,0.08183 0.02425,0.01605 0.04577,0.02557 0.06606,0.03203 0.02054,0.0071 0.03946,0.01021 0.05758,0.01155 0.01814,0.0013 0.0352,4.6e-5 0.05158,-0.0027 0.01661,-0.0024 0.03303,-0.0054 0.04929,-0.0085 0.0653,-0.01217 0.126705,-0.03394 0.185781,-0.06123 0.05889,-0.02775 0.118392,-0.05404 0.175167,-0.08692 0.05697,-0.03238 0.11168,-0.07024 0.167098,-0.106318 0.08393,-0.0529 0.167663,-0.106184 0.264543,-0.127795 l 0.0093,0.02216 c 0.0042,0.01009 0.02021,0.01313 0.03575,0.0066 0.01554,-0.0066 0.02471,-0.01984 0.02049,-0.03 l 0.0058,0.01409 c 0.0046,0.01119 0.02108,0.01521 0.03657,0.0087 0.01554,-0.0064 0.02436,-0.02077 0.01967,-0.0321 l -0.0011,-0.0029 c 0.02452,-0.004 0.04789,-0.01095 0.07075,-0.01894 l 0.0257,-0.0085 c 0.21521,0.429357 0.557881,0.759184 0.962144,0.962115 l -0.0085,0.02569 c -0.0082,0.02285 -0.01489,0.04627 -0.01894,0.0708 l -0.0029,-0.0011 c -0.01119,-0.0046 -0.02569,0.004 -0.03209,0.01965 -0.0064,0.01554 -0.0024,0.03193 0.0087,0.0366 l 0.0141,0.0059 c -0.01009,-0.0042 -0.02359,0.005 -0.03004,0.0205 -0.0064,0.01554 -0.0034,0.03152 0.0066,0.03571 l 0.02216,0.0093 c -0.02159,0.09688 -0.0749,0.180621 -0.127794,0.264563 -0.03602,0.05542 -0.0739,0.110173 -0.106318,0.167102 -0.03287,0.05677 -0.05913,0.116264 -0.08688,0.175189 -0.02734,0.05903 -0.04895,0.120425 -0.06125,0.185758 -0.0032,0.01623 -0.0059,0.0327 -0.0085,0.04931 -0.0029,0.01638 -0.004,0.03346 -0.0027,0.05157 0.0012,0.01812 0.0045,0.03708 0.01155,0.05758 0.0066,0.02026 0.01602,0.04177 0.03206,0.06607 0.01729,0.02605 0.04929,0.04047 0.08179,0.03384 0.02853,-0.0058 0.05046,-0.01425 0.06941,-0.02404 0.01949,-0.0095 0.03512,-0.02061 0.04883,-0.03252 0.01378,-0.01179 0.02491,-0.02488 0.03449,-0.0385 0.01009,-0.01345 0.01965,-0.02707 0.02886,-0.04085 0.03752,-0.0548 0.06561,-0.113638 0.08809,-0.174649 0.02202,-0.06129 0.04553,-0.121932 0.06237,-0.185309 0.01741,-0.06319 0.02931,-0.128675 0.04302,-0.193352 0.02194,-0.09674 0.04344,-0.193645 0.09664,-0.277456 l 0.02216,0.0093 c 0.01009,0.0042 0.02358,-0.005 0.03004,-0.02049 0.0064,-0.01554 0.0034,-0.03151 -0.0066,-0.03571 l 0.01409,0.0058 c 0.01119,0.0046 0.02565,-0.004 0.03206,-0.0196 0.0064,-0.01554 0.0024,-0.03193 -0.0087,-0.03664 l -0.0029,-0.0012 c 0.01441,-0.02022 0.02619,-0.04153 0.03663,-0.06339 l 0.01203,-0.02426 c 0.429345,0.142354 0.904863,0.151435 1.360638,0 l 0.01203,0.02425 c 0.01046,0.02188 0.02223,0.04322 0.03665,0.06343 l -0.0029,0.0011 c -0.01119,0.0046 -0.01521,0.02107 -0.0087,0.0366 0.0064,0.01554 0.02081,0.02435 0.03212,0.01965 l 0.0141,-0.0058 c -0.01021,0.0042 -0.01313,0.0202 -0.0067,0.03571 0.0064,0.01554 0.01984,0.0247 0.03,0.02049 l 0.02216,-0.0093 c 0.05325,0.08379 0.07475,0.18071 0.09666,0.277432 0.01378,0.06472 0.02566,0.130182 0.043,0.193375 0.0169,0.06339 0.04041,0.124015 0.06243,0.185287 0.02241,0.06102 0.05054,0.119828 0.08806,0.174648 0.0093,0.01378 0.01887,0.02737 0.02886,0.04087 0.0095,0.01362 0.02074,0.02656 0.03451,0.0385 0.01362,0.01203 0.02939,0.02302 0.04883,0.03252 0.01893,0.0097 0.04087,0.0183 0.06938,0.02408 0.03067,0.0062 0.06349,-0.0062 0.08185,-0.03388"
     style="fill:#000000;fill-opacity:1;fill-rule:nonzero;stroke:#ffffff;stroke-width:1.08098;stroke-miterlimit:4;stroke-dasharray:none;stroke-opacity:1;paint-order:stroke fill markers"
     id="path14" />
  <path
     id="path1897"
     style="fill:#000000;stroke:#ffffff;stroke-width:0.743884;stroke-miterlimit:4;stroke-dasharray:none;stroke-opacity:1;paint-order:stroke fill markers"
     d="m 2.7412296,9.7874732 c -0.3656022,0.00949 -0.6959806,0.3159328 -0.6654273,0.6825718 0,0.275297 0.1696857,0.499657 0.408555,0.598013 0.00421,0.04372 0.011623,0.112554 0.011623,0.217354 v 0.281861 l -0.6790845,-0.0096 c -0.5339509,-0.0074 -0.6898427,-5.18e-4 -0.7293549,0.03225 -0.06319,0.05242 -0.073296,0.405914 -0.011623,0.407684 l 1.3889707,-0.0032 c 0.00155,0.331768 0.00596,0.663436 0.00175,0.995235 -0.015643,0.685325 -0.027635,1.370661 -0.033997,2.056141 -0.0028,0.371217 -0.016919,0.727476 -0.031383,0.791539 -0.054441,0.241477 -0.2067571,0.274264 -0.6761788,0.14558 -0.4882011,-0.133836 -1.094553,-0.431252 -1.196607,-0.586971 -0.081133,-0.123842 -0.093798,-0.22984 -0.03516,-0.294647 0.02924,-0.03231 0.072579,-0.05129 0.096473,-0.04213 0.026413,0.01012 0.054208,-0.01196 0.070901,-0.05638 0.058757,-0.156433 -0.1373225,-0.387768 -0.5236244,-0.617481 -0.093888,-0.05584 -0.247541,-0.175768 -0.341431,-0.266462 -0.09852,-0.09517 -0.1853887,-0.155525 -0.2054398,-0.142674 -0.062357,0.03995 -0.189775,0.328656 -0.2289768,0.518393 -0.078802,0.381399 0.021125,0.944128 0.2068926,1.164934 0.098084,0.11658 0.152666,0.117506 0.1755102,0.0032 0.040289,-0.201437 0.2912001,-0.143244 0.5643057,0.130761 0.2161498,0.216896 0.6276943,0.531442 0.8069396,0.616611 0.068289,0.03243 0.1658499,0.08507 0.217063,0.117103 0.051209,0.032 0.2048629,0.09629 0.341431,0.142965 0.2861104,0.09787 0.6213657,0.271237 0.7540541,0.389958 0.050406,0.04507 0.1264708,0.104892 0.1691174,0.132795 0.074585,0.04889 0.079525,0.04771 0.1301797,-0.02964 0.1054989,-0.161026 0.2874617,-0.302074 0.5631432,-0.43616 0.154943,-0.07542 0.3051544,-0.136863 0.3335855,-0.136863 0.060494,0 0.5709573,-0.225969 0.8784222,-0.388796 0.2409808,-0.127567 0.3494183,-0.204352 0.618644,-0.438193 0.3038954,-0.263981 0.4576856,-0.293844 0.617191,-0.11972 l 0.099378,0.108677 0.064218,-0.06974 c 0.1156796,-0.12648 0.1581024,-0.253713 0.1804498,-0.539607 0.017103,-0.218601 0.00974,-0.337374 -0.032254,-0.527111 -0.066484,-0.299767 -0.1779245,-0.556026 -0.2612312,-0.600627 -0.052609,-0.02812 -0.070385,-0.01998 -0.11536,0.0526 -0.078185,0.126171 -0.1871978,0.225534 -0.3975131,0.361481 -0.2518131,0.162765 -0.4039452,0.330289 -0.4506888,0.497182 -0.045098,0.161181 -0.024613,0.21987 0.061021,0.174057 0.093425,-0.05 0.1543564,-0.03631 0.1903297,0.04272 0.050685,0.111179 -0.025395,0.200695 -0.3196377,0.37572 -0.5025401,0.298929 -1.1762945,0.543674 -1.496485,0.543674 -0.1510941,0 -0.2931091,-0.05861 -0.31586,-0.13018 -0.010957,-0.03452 -0.011438,-0.441786 -0.00116,-0.905155 0.010274,-0.463401 0.026878,-1.324121 0.036904,-1.912885 0.010026,-0.588765 0.022995,-1.078037 0.028768,-1.087349 0.00577,-0.0093 0.3258752,-0.01406 0.7113389,-0.01046 0.7996692,0.0074 0.757469,0.02253 0.7508578,-0.268205 l -0.00378,-0.170861 c -0.4775853,-0.0335 -0.9665789,0.02932 -1.4421468,-0.03487 -0.00897,-0.009 -0.018439,-0.119629 -0.020922,-0.24583 l -0.00319,-0.216175 C 3.2565135,10.989731 3.44154,10.757637 3.44154,10.470053 c 0,-0.372459 -0.3104033,-0.6825714 -0.6828622,-0.6825714 -0.00582,0 -0.011631,-1.506e-4 -0.017435,0 z m -0.013658,0.3411408 c 0.1862296,0 0.3414311,0.155438 0.3414311,0.310629 0,0.186229 -0.1552015,0.341432 -0.3414311,0.341432 -0.1862293,0 -0.3103389,-0.155203 -0.3103389,-0.341432 0,-0.155191 0.1241096,-0.310629 0.3103389,-0.310629 z" />
  <g
     aria-label="музей"
     id="text29523"
     style="font-size:6px;line-height:1.25;font-family:'Roboto Condensed';-inkscape-font-specification:'Roboto Condensed, ';fill:#ffffff;stroke-width:0.15"
     transform="rotate(-98.006,18.689081,90.700888)">
    <path
       d="m 79.63539,91.222175 2.424838,0.924677 -0.01984,0.644226 -3.168421,-0.09756 0.01587,-0.515381 2.184511,0.06727 -2.159896,-0.866691 0.01091,-0.354324 2.262377,-0.748108 -2.237221,-0.06889 0.01587,-0.51538 3.16842,0.09756 -0.02056,0.667653 z"
       id="path32364" />
    <path
       d="m 79.597157,94.452508 2.253769,0.763695 -0.04497,0.548943 -3.521417,-1.329033 q -0.3963,-0.150043 -0.589073,-0.380417 -0.195693,-0.230613 -0.17345,-0.502165 0.0086,-0.105116 0.06872,-0.264804 l 0.437986,0.03588 -0.02101,0.112919 q -0.01842,0.224833 0.07934,0.359239 0.09459,0.137086 0.350927,0.23745 l 0.344937,0.131137 3.20912,-0.671892 -0.04616,0.563543 z"
       id="path32366" />
    <path
       d="m 80.640008,98.221774 q -0.21224,-0.02633 -0.376249,-0.1559 -0.164008,-0.129573 -0.244151,-0.340259 -0.246323,0.438836 -0.790008,0.371397 -0.439018,-0.05446 -0.653352,-0.373304 -0.214694,-0.315941 -0.156632,-0.784033 0.05734,-0.462278 0.359061,-0.728923 0.304266,-0.263376 0.757822,-0.207117 l -0.06311,0.508796 q -0.232592,-0.02885 -0.414882,0.107953 -0.182289,0.136805 -0.2115,0.372304 -0.02957,0.238408 0.09522,0.398542 0.124431,0.163041 0.351209,0.191171 0.264574,0.03282 0.392749,-0.07232 0.130722,-0.101871 0.162097,-0.354815 l 0.05842,-0.471 0.453555,0.05626 -0.06275,0.505888 q -0.03595,0.40884 0.403066,0.463297 0.220963,0.02741 0.364757,-0.08465 0.14634,-0.10879 0.174109,-0.33266 0.02705,-0.218055 -0.09993,-0.384365 -0.127338,-0.163402 -0.333764,-0.189007 l 0.06311,-0.508796 q 0.409945,0.05085 0.635548,0.374047 0.225602,0.323198 0.171146,0.762217 -0.05806,0.468092 -0.328566,0.697279 -0.270865,0.232094 -0.706976,0.177999 z"
       id="path32368" />
    <path
       d="m 77.999041,99.771073 q 0.09884,-0.583485 0.498309,-0.83673 0.402358,-0.252757 1.076366,-0.144526 l 0.378398,0.0641 q 0.699026,0.118412 1.043379,0.488743 0.346752,0.373709 0.254274,0.91964 -0.09297,0.54882 -0.488475,0.76114 -0.395508,0.21232 -1.135952,0.0928 l -0.335071,-0.0568 0.29554,-1.744672 -0.07221,-0.01223 q -0.502605,-0.08514 -0.762605,0.06396 -0.260488,0.151989 -0.320672,0.507279 -0.03817,0.225303 0.01673,0.409913 0.0573,0.18799 0.21672,0.36951 l -0.368532,0.21095 q -0.411673,-0.41145 -0.296198,-1.093143 z m 2.811668,0.416857 q 0.05382,-0.317743 -0.139772,-0.508022 -0.190708,-0.189791 -0.64656,-0.28781 l -0.208443,1.230522 0.06933,0.0117 q 0.44826,0.0551 0.662879,-0.0541 0.21413,-0.10636 0.262571,-0.39232 z"
       id="path32370" />
    <path
       d="m 80.492002,103.78247 -0.110218,0.5037 -3.096656,-0.67759 0.110218,-0.5037 2.258098,0.4941 -2.012612,-1.616 0.110845,-0.50657 3.096655,0.67759 -0.110844,0.50657 -2.260959,-0.49473 z m 1.062488,0.54438 q -0.346298,-0.0758 -0.506106,-0.35966 -0.157573,-0.2804 -0.07366,-0.6639 0.08392,-0.38351 0.34768,-0.57471 0.263764,-0.1912 0.607201,-0.11605 l -0.09456,0.43216 q -0.200338,-0.0438 -0.338614,0.0399 -0.135414,0.0843 -0.18113,0.29325 -0.04384,0.20034 0.04336,0.33638 0.08657,0.1389 0.289767,0.18337 z"
       id="path32372" />
  </g>
</svg>
